<?xml version="1.0" encoding="UTF-8"?>
<svg version="1.1" xmlns="http://www.w3.org/2000/svg" width="512" height="512">
<path d="M0 0 C1.30048109 -0.13697356 1.30048109 -0.13697356 2.62723452 -0.27671427 C5.53120669 -0.57706296 8.43628683 -0.86365854 11.3419342 -1.14732361 C12.36245251 -1.24864782 13.38297081 -1.34997204 14.43441391 -1.45436668 C35.03515872 -3.47659477 55.66300847 -4.6958358 76.3384161 -5.64930058 C89.44176596 -6.26994771 102.44886255 -7.11320016 115.4879303 -8.5955658 C175.4164274 -15.24838465 221.66989779 -7.41178604 269.00448418 30.22916317 C317.16155636 69.21103499 355.29585902 114.82450949 361.97895372 177.98880732 C365.82580106 217.69533344 363.4400289 257.82332133 360.66115588 297.51656371 C359.65526963 312.05799947 359.00006083 326.58728527 358.56556702 341.15663147 C358.53446275 342.19648236 358.50335848 343.23633325 358.47131165 344.30769478 C358.31667119 349.53124222 358.1671269 354.75492222 358.01949346 359.97867179 C357.11988797 391.5053965 355.86324727 423.00549645 353.90818465 454.48516798 C353.75864497 456.9228378 353.61527793 459.36079997 353.47351074 461.79893303 C353.25314671 465.56305523 353.01437316 469.32554838 352.76007096 473.08752669 C352.6283298 475.08335081 352.51180085 477.08016133 352.39590234 479.07696807 C351.69006571 488.8696399 349.19882036 497.79981577 342.28749084 505.09510803 C335.86353981 510.25806127 329.69788488 513.34074094 321.32690716 513.35237694 C320.15009024 513.35882583 318.97327333 513.36527472 317.7607953 513.37191904 C316.47705279 513.36882183 315.19331029 513.36572463 313.8706665 513.36253357 C312.48596697 513.36627169 311.10126954 513.37087386 309.71657544 513.37626421 C305.91655399 513.38848965 302.11662062 513.38823429 298.31658399 513.38587546 C294.21626072 513.38546718 290.11596564 513.39650751 286.01565552 513.4059906 C277.98427611 513.42259897 269.95292607 513.42810007 261.92153092 513.42921536 C255.3928563 513.43016589 248.86419135 513.43427645 242.33551979 513.44061661 C223.82314519 513.45822842 205.31079377 513.46745555 186.79841074 513.46595566 C185.80053715 513.46587575 184.80266357 513.46579583 183.77455139 513.4657135 C182.77545863 513.46563174 181.77636587 513.46554998 180.74699757 513.46546574 C164.55477036 513.46465281 148.36263617 513.48379233 132.17043587 513.51199023 C115.54206335 513.5407191 98.91373619 513.55453053 82.28533822 513.55280268 C72.95068548 513.55213879 63.61613025 513.55763073 54.28149986 513.57915878 C46.33391468 513.59737058 38.38647122 513.60171792 30.43887421 513.58813994 C26.38505989 513.58161032 22.33151748 513.58149271 18.27772903 513.59884644 C14.5635323 513.61458269 10.84982292 513.6117083 7.13563804 513.59427817 C5.16221633 513.58976051 3.18877947 513.60486127 1.21541661 513.62075746 C-6.00007604 513.5647361 -11.43882023 512.7401325 -17.71250916 509.09510803 C-18.36608282 508.71684163 -19.01965649 508.33857524 -19.69303542 507.94884622 C-26.62058251 503.72310657 -30.49598683 496.71433573 -32.71250916 489.09510803 C-32.95301819 486.24760437 -32.95301819 486.24760437 -32.93955994 483.27333069 C-32.93940887 482.15262177 -32.93925781 481.03191284 -32.93910217 479.87724304 C-32.9287796 478.68327911 -32.91845703 477.48931519 -32.90782166 476.25917053 C-32.90499176 475.0246817 -32.90216187 473.79019287 -32.89924622 472.51829529 C-32.88807438 468.58546654 -32.86297479 464.65286766 -32.83750916 460.72010803 C-32.82634741 458.04953845 -32.81835034 455.37897102 -32.81016541 452.70838928 C-32.7881448 446.17055078 -32.75469675 439.63284583 -32.71250916 433.09510803 C-33.3757016 433.10399048 -34.03889404 433.11287292 -34.72218323 433.12202454 C-41.63277049 433.21060759 -48.54319611 433.27088819 -55.45420837 433.31483459 C-58.03240003 433.33493366 -60.6105462 433.36221744 -63.18858337 433.39686584 C-66.89719376 433.4454565 -70.60520071 433.46809461 -74.31407166 433.48573303 C-76.03939621 433.51670074 -76.03939621 433.51670074 -77.79957581 433.54829407 C-83.9032266 433.55000048 -88.06872294 433.50528496 -92.71250916 429.09510803 C-96.28042201 424.56371676 -97.21354439 421.62589372 -97.22044373 415.88417053 C-97.22980367 414.82927429 -97.22980367 414.82927429 -97.2393527 413.75306702 C-97.25524349 411.40840118 -97.24269479 409.06478065 -97.23008728 406.72010803 C-97.23551017 405.03439225 -97.24263377 403.34868121 -97.25132751 401.66297913 C-97.26954398 397.0927109 -97.2625003 392.52280436 -97.24981117 387.95252991 C-97.23967482 383.1667128 -97.24907862 378.38092638 -97.25535583 373.59510803 C-97.26263038 365.55859322 -97.25304958 357.52222551 -97.23399353 349.48573303 C-97.21222515 340.19819856 -97.21927666 330.91101534 -97.24129915 321.62348938 C-97.25945863 313.64539079 -97.26200879 305.66739786 -97.25154448 297.68928528 C-97.24531256 292.92606347 -97.24446562 288.1630067 -97.25769043 283.39979553 C-97.26925628 278.92137736 -97.26120988 274.44341149 -97.2381134 269.96504211 C-97.23283022 268.32275645 -97.23433343 266.68043265 -97.24316406 265.03816223 C-97.25411928 262.79361178 -97.24035849 260.55050438 -97.22044373 258.30604553 C-97.21893562 257.05098206 -97.21742752 255.79591858 -97.21587372 254.50282288 C-96.45219227 249.33279544 -93.95945705 246.27932724 -90.2374115 242.74452209 C-84.96336843 240.27662938 -80.06415857 240.60127518 -74.31407166 240.70448303 C-73.12397491 240.71014282 -71.93387817 240.71580261 -70.7077179 240.72163391 C-66.91723429 240.74397352 -63.12770571 240.79416841 -59.33750916 240.84510803 C-56.76330408 240.86517602 -54.18908415 240.88342626 -51.61485291 240.89979553 C-45.31374737 240.94383059 -39.01319651 241.01071998 -32.71250916 241.09510803 C-32.71619633 239.99019799 -32.7198835 238.88528795 -32.7236824 237.74689579 C-32.81250121 210.85553245 -32.87822198 183.96418815 -32.91975784 157.07270908 C-32.94037843 144.06815946 -32.96848962 131.06370677 -33.01426697 118.05921936 C-33.05414989 106.72381984 -33.07994562 95.38849053 -33.08886313 84.0530228 C-33.09407536 78.05159275 -33.10631591 72.05036353 -33.13542938 66.04899788 C-33.16262123 60.39785358 -33.1709464 54.74699246 -33.16493988 49.09578896 C-33.16603842 47.02419241 -33.17396964 44.95258618 -33.18933105 42.8810463 C-33.20931778 40.04621739 -33.2044166 37.21244893 -33.19352722 34.37759399 C-33.20517859 33.56336474 -33.21682995 32.74913548 -33.22883439 31.9102326 C-33.14150962 23.4637859 -29.54370949 15.25026394 -23.71250916 9.09510803 C-16.34884712 3.17690558 -9.26720683 0.93313051 0 0 Z " fill="#E1E4E6" transform="translate(128.71250915527344,-1.0951080322265625)"/>
<path d="M0 0 C1.9029279 -0.01564648 1.9029279 -0.01564648 3.84429878 -0.03160906 C5.24457522 -0.0229616 6.64484937 -0.013935 8.04512119 -0.00457001 C9.53849459 -0.00918002 11.03186346 -0.01553361 12.52522284 -0.02347898 C16.62564576 -0.04018207 20.72569645 -0.03192159 24.82612073 -0.01953411 C29.24952907 -0.01048984 33.67287307 -0.0244503 38.09626865 -0.0354538 C46.76068805 -0.05325071 55.42496894 -0.04939369 64.08939379 -0.03780323 C71.13106021 -0.02877321 78.17268778 -0.02754305 85.21435833 -0.0318985 C86.2162051 -0.03251143 87.21805187 -0.03312436 88.25025763 -0.03375587 C90.28544232 -0.03503476 92.320627 -0.03633161 94.35581166 -0.03764623 C113.44515324 -0.04905562 132.53441802 -0.03593301 151.623747 -0.01444477 C168.00460508 0.0034238 184.38534976 0.00032478 200.76620579 -0.01811981 C219.7852398 -0.0395249 238.80420646 -0.04795407 257.82325083 -0.03567076 C259.85129455 -0.03439655 261.87933827 -0.03313907 263.90738201 -0.0318985 C264.90523502 -0.0312814 265.90308802 -0.03066429 266.931179 -0.03002849 C273.96418082 -0.02657431 280.99713994 -0.03240548 288.03013515 -0.04181671 C296.60141522 -0.05303417 305.17254875 -0.05000208 313.74381202 -0.02869374 C318.11735342 -0.01817949 322.49065049 -0.01406779 326.8641901 -0.02729034 C330.86818648 -0.03921257 334.87171215 -0.03265475 338.87566585 -0.01138014 C340.32377978 -0.00691329 341.77193351 -0.00918228 343.22002184 -0.01888329 C356.70001054 -0.10225821 356.70001054 -0.10225821 362.62777805 4.50336456 C367.08308545 9.31040676 367.75236515 12.7116375 367.77494907 19.15026093 C367.77862576 19.82913292 367.78230245 20.50800491 367.78609055 21.20744878 C367.79712314 23.48732873 367.80097052 25.76716309 367.80478001 28.04706573 C367.81104504 29.67982884 367.81769187 31.31259053 367.82469273 32.94535065 C367.84573272 38.31233477 367.85609578 43.67931918 367.8660593 49.04633331 C367.87010703 50.89451678 367.87422396 52.7427001 367.87840939 54.59088326 C367.89746175 63.27482141 367.91169209 71.95875106 367.92002136 80.6427061 C367.92979117 90.66291555 367.9561038 100.68290396 367.99652225 110.70303553 C368.02669788 118.45008028 368.04149165 126.19706172 368.04480237 133.9441641 C368.04715142 138.57004274 368.05609281 143.19568524 368.08126354 147.82150078 C368.1045743 152.1758962 368.10876549 156.52990051 368.09850216 160.88434219 C368.0980074 162.47904195 368.10431022 164.07376115 368.1180582 165.66840172 C368.24118976 180.80222703 368.24118976 180.80222703 363.62777805 187.50336456 C358.62623673 191.48418316 354.93082127 192.62728021 348.63752365 192.63758564 C346.74785552 192.64427241 346.74785552 192.64427241 344.82001227 192.65109426 C343.41415257 192.65100496 342.00829288 192.6508151 340.6024332 192.65053558 C339.11506628 192.65383414 337.62770026 192.6575597 336.14033538 192.66167706 C332.04272761 192.67170584 327.94513449 192.67541526 323.84751618 192.67806637 C319.43227364 192.68196675 315.01704272 192.69154518 310.60180759 192.70027924 C299.93479042 192.72004978 289.26777228 192.73010998 278.60074136 192.73900703 C273.5801846 192.74338841 268.55962891 192.74875555 263.53907299 192.7539959 C246.85491467 192.77100773 230.17075701 192.78550308 213.48659134 192.79274464 C209.15613078 192.79465459 204.82567023 192.79657492 200.49520969 192.79853058 C198.88069735 192.79925619 198.88069735 192.79925619 197.23356859 192.79999646 C179.78785827 192.80830118 162.34221642 192.83364577 144.89653601 192.86611126 C126.99475423 192.89915461 109.09300728 192.91719087 91.19119483 192.92038888 C81.13615029 192.92255635 71.08120563 192.93133984 61.02619076 192.95685005 C52.46507793 192.97851975 43.90408924 192.98662585 35.34295209 192.97688327 C30.97359094 192.9723279 26.60448613 192.97429638 22.23515987 192.99364471 C18.23605486 193.01120102 14.23739464 193.01034045 10.2382854 192.99474742 C8.79076243 192.99235985 7.34320927 192.9967542 5.8957326 193.00857607 C-6.26182751 193.10172778 -6.26182751 193.10172778 -10.02261543 190.84788036 C-15.00573034 185.87556199 -16.87163893 182.38087717 -16.88015652 175.29242706 C-16.88639648 174.5891629 -16.89263644 173.88589874 -16.89906549 173.16132355 C-16.91495628 170.81665771 -16.90240758 168.47303718 -16.88980007 166.12836456 C-16.89522297 164.44264878 -16.90234657 162.75693774 -16.91104031 161.07123566 C-16.92925677 156.50096743 -16.9222131 151.93106089 -16.90952396 147.36078644 C-16.89938761 142.57496933 -16.90879141 137.78918291 -16.91506863 133.00336456 C-16.92234318 124.96684975 -16.91276237 116.93048204 -16.89370632 108.89398956 C-16.87193795 99.60645509 -16.87898945 90.31927187 -16.90101194 81.03174591 C-16.91917142 73.05364732 -16.92172159 65.07565439 -16.91125727 57.09754181 C-16.90502535 52.33432 -16.90417841 47.57126323 -16.91740322 42.80805206 C-16.92896907 38.3296339 -16.92092267 33.85166802 -16.89782619 29.37329865 C-16.89254301 27.73101299 -16.89404622 26.08868918 -16.90287685 24.44641876 C-16.91383207 22.20186831 -16.90007128 19.95876092 -16.88015652 17.71430206 C-16.87864841 16.45923859 -16.87714031 15.20417511 -16.87558651 13.91107941 C-16.08585317 8.56468391 -13.83915742 5.64752575 -9.62403244 2.35986757 C-6.02961101 0.3077633 -4.09638576 0.00243255 0 0 Z " fill="#F15642" transform="translate(48.37222194671631,239.49663543701172)"/>
<path d="M0 0 C6.66859393 5.4832487 12.71373784 11.56537937 18.81030273 17.66503906 C19.99338825 18.84512852 21.17667727 20.02501399 22.3601532 21.20471191 C25.55627919 24.39204695 28.74919542 27.58257832 31.94124866 30.77399158 C33.93560031 32.76763084 35.93066294 34.76055574 37.92598152 36.75322723 C44.88571566 43.70372974 51.84288186 50.65679064 58.79760742 57.61230469 C65.28526766 64.10056766 71.77850647 70.58321076 78.27433819 77.06329179 C83.85336262 82.62926874 89.42855355 88.19906562 95.00073773 93.7718904 C98.32832385 97.099732 101.65745898 100.4259877 104.99044609 103.74842072 C108.11800663 106.86634532 111.24079065 109.9889739 114.35988045 113.1153717 C115.50788806 114.26443026 116.65762228 115.41176663 117.80915833 116.55728912 C119.37455929 118.11503985 120.93374352 119.67875227 122.49143982 121.24420166 C123.36726935 122.11948643 124.24309889 122.99477119 125.14546871 123.89657974 C127 126 127 126 127 128 C114.39510984 128.04643635 101.79024019 128.08192656 89.18528175 128.10362434 C83.3316609 128.11404063 77.47809878 128.12816044 71.62451172 128.15087891 C65.97053834 128.17268416 60.3166213 128.18458482 54.6626091 128.18975449 C52.51056406 128.19343647 50.35852193 128.20062634 48.20650101 128.21146011 C45.18138325 128.22607713 42.15649531 128.22797368 39.13134766 128.22705078 C38.25092804 128.23424133 37.37050842 128.24143188 36.46340942 128.24884033 C25.64950677 128.21337597 17.15374176 126.43677481 9 119 C1.3965975 109.80993706 -0.15973855 100.85278946 -0.11352539 89.23095703 C-0.11367142 88.26447739 -0.11381744 87.29799774 -0.1139679 86.30223083 C-0.11327351 83.1207349 -0.10550333 79.93929816 -0.09765625 76.7578125 C-0.09579039 74.54678377 -0.09436728 72.33575463 -0.09336853 70.12472534 C-0.08955662 64.31492973 -0.07973765 58.50515924 -0.06866455 52.69537354 C-0.05842192 46.76306498 -0.0538648 40.83075235 -0.04882812 34.8984375 C-0.03811419 23.26561398 -0.02105369 11.63280908 0 0 Z " fill="#B0B7BD" transform="translate(352,0)"/>
<path d="M0 0 C0.89976562 0.4021875 1.79953125 0.804375 2.7265625 1.21875 C14.35231002 6.98358348 21.09598248 15.08564923 26 27 C26.37511719 27.90234375 26.75023437 28.8046875 27.13671875 29.734375 C28.31875049 34.20577109 28.38283973 38.45439097 28.375 43.0625 C28.37367065 44.45662109 28.37367065 44.45662109 28.37231445 45.87890625 C28.2252279 54.4801099 26.90043477 62.23696375 22.3515625 69.70703125 C20.77630478 71.87324421 20.77630478 71.87324421 21.1875 74.1875 C21.95874533 76.19607555 21.95874533 76.19607555 24 78 C24.67039106 84.9273743 24.67039106 84.9273743 22.4375 88.5 C19.02095736 90.60248778 16.95351948 90.54531303 13 90 C10.9819245 88.69418644 8.97946592 87.36363208 7 86 C4.6940816 86.30938947 2.8313948 87.07091672 0.6875 87.97265625 C-10.16074266 92.37187093 -23.92868959 93.16550054 -35.125 89.375 C-36.77433803 88.63537498 -38.40152058 87.84393404 -40 87 C-41.2684375 86.36384766 -41.2684375 86.36384766 -42.5625 85.71484375 C-54.69001925 79.07798489 -61.75760798 69.61613523 -66.140625 56.6171875 C-68.53619035 46.53403517 -67.64611949 35.65429031 -64 26 C-63.74476563 25.30777344 -63.48953125 24.61554688 -63.2265625 23.90234375 C-58.02149192 11.89247907 -47.30317267 3.98087729 -35.5625 -0.875 C-24.35730168 -4.63839272 -10.90562171 -4.91311285 0 0 Z " fill="#FEFCFB" transform="translate(246,296)"/>
<path d="M0 0 C0.33 0 0.66 0 1 0 C1.10887507 2.68860931 1.18770594 5.37273158 1.25 8.0625 C1.28351563 8.81466797 1.31703125 9.56683594 1.3515625 10.34179688 C1.45097919 16.0831109 0.28088796 19.27289185 -3 24 C-7.29575092 27.98142769 -10.39794929 29.12539701 -16.17929363 29.12304783 C-17.25815262 29.12503888 -18.3370116 29.12702993 -19.44856328 29.12908131 C-20.63823683 29.12616847 -21.82791038 29.12325563 -23.05363464 29.12025452 C-24.31393205 29.12110894 -25.57422945 29.12196337 -26.87271768 29.12284368 C-30.37763578 29.12508524 -33.88252347 29.12107197 -37.3874377 29.11606562 C-41.16451638 29.11175647 -44.94159327 29.11320788 -48.71867371 29.1139679 C-55.26496476 29.11449283 -61.81124586 29.11134916 -68.35753441 29.10573006 C-77.82242667 29.09761101 -87.2873141 29.09499942 -96.75220946 29.09374207 C-112.10751412 29.09155219 -127.46281346 29.08489383 -142.81811523 29.07543945 C-157.73640923 29.06626369 -172.6547018 29.05918366 -187.57299805 29.05493164 C-188.49220451 29.05466892 -189.41141098 29.05440619 -190.35847219 29.05413551 C-194.96975422 29.05283049 -199.58103627 29.05156678 -204.19231832 29.05032361 C-242.4615493 29.03995298 -280.73077421 29.02226218 -319 29 C-319 23.72 -319 18.44 -319 13 C-317.42517853 12.99853344 -315.85035706 12.99706688 -314.22781372 12.99555588 C-276.8446811 12.95985385 -239.46162757 12.90361261 -202.07856566 12.82207905 C-197.47734487 12.81206159 -192.87612373 12.80221746 -188.27490234 12.79248047 C-187.35888209 12.7905391 -186.44286184 12.78859772 -185.4990834 12.78659752 C-170.66704659 12.75557649 -155.83502525 12.73859658 -141.00296211 12.72680578 C-125.78387232 12.71439476 -110.56486373 12.68689445 -95.3458252 12.64538693 C-85.95486041 12.62025014 -76.5640303 12.60688285 -67.17303139 12.60857043 C-60.73325242 12.60860018 -54.29361063 12.59397298 -47.85388511 12.56783572 C-44.13846938 12.55318811 -40.42333497 12.5449881 -36.70789528 12.55419731 C-32.67731026 12.56401852 -28.64746879 12.54296791 -24.61694336 12.51898193 C-23.44572496 12.52674235 -22.27450657 12.53450277 -21.06779671 12.54249835 C-14.258482 12.47067671 -9.78969764 11.67009223 -4 8 C-2.27957378 5.9787325 -2.27957378 5.9787325 -1.5 3.75 C-1.2009375 3.04359375 -0.901875 2.3371875 -0.59375 1.609375 C-0.29984375 0.81273437 -0.29984375 0.81273437 0 0 Z " fill="#CAD0D7" transform="translate(415,419)"/>
<path d="M0 0 C0 31.68 0 63.36 0 96 C-7.87529997 89.24974288 -7.87529997 89.24974288 -11.18260193 85.94438171 C-11.93267014 85.19713333 -12.68273834 84.44988495 -13.45553589 83.67999268 C-14.25323395 82.88027039 -15.05093201 82.0805481 -15.87280273 81.2565918 C-16.73213913 80.39900772 -17.59147552 79.54142365 -18.47685242 78.65785217 C-20.81295807 76.32537215 -23.14681924 73.99069243 -25.4795177 71.65480781 C-27.92568342 69.20609679 -30.37430328 66.75984173 -32.82252502 64.31318665 C-36.92539264 60.21213234 -41.02616007 56.10898687 -45.12573242 52.00463867 C-49.86993348 47.2549748 -54.61775563 42.50895344 -59.36743206 37.76476544 C-63.45005741 33.68666921 -67.53074208 29.60663875 -71.60979229 25.52496654 C-74.04439856 23.08879917 -76.47968055 20.65331762 -78.91671562 18.2195797 C-81.62498923 15.51471555 -84.32918745 12.80580033 -87.03295898 10.09643555 C-87.84482666 9.2865921 -88.65669434 8.47674866 -89.49316406 7.6423645 C-90.2234935 6.90921524 -90.95382294 6.17606598 -91.70628357 5.42070007 C-92.3461341 4.78047252 -92.98598463 4.14024496 -93.64522457 3.48061657 C-95 2 -95 2 -95 1 C-82.7611933 0.86955395 -70.522386 0.73916459 -58.28357792 0.60884857 C-52.6012424 0.54834256 -46.9189071 0.48781667 -41.23657227 0.42724609 C-35.75771063 0.36884515 -30.27884845 0.31049545 -24.79998589 0.25218201 C-22.70470599 0.22987207 -20.6094263 0.20754334 -18.5141468 0.18519592 C-15.59024227 0.15401387 -12.66633704 0.1228973 -9.74243164 0.09179688 C-8.8670575 0.08244614 -7.99168335 0.0730954 -7.08978271 0.0634613 C-1.11405216 0 -1.11405216 0 0 0 Z " fill="#C9D0D7" transform="translate(480,127)"/>
<path d="M0 0 C1.41249023 -0.01063477 1.41249023 -0.01063477 2.85351562 -0.02148438 C10.58871572 0.04849308 16.67769929 1.74517507 23.3125 5.875 C24.28316406 6.46087891 24.28316406 6.46087891 25.2734375 7.05859375 C27.23647507 8.68524225 28.02877354 10.06832031 28.9375 12.4375 C28.77929125 15.60167507 28.10446498 17.19347426 26.3125 19.8125 C23.9375 21.4375 23.9375 21.4375 20.8125 21.4375 C17.79818504 20.83463701 15.27373355 19.67562464 12.5 18.375 C7.7966215 16.38929012 3.5987992 16.02789405 -1.4375 16 C-2.1277124 15.99025146 -2.8179248 15.98050293 -3.52905273 15.97045898 C-7.71202802 16.04061049 -9.95180448 16.65851372 -13.0625 19.4375 C-13.7225 19.4375 -14.3825 19.4375 -15.0625 19.4375 C-15.34118395 20.82789057 -15.58418931 22.22545546 -15.8125 23.625 C-15.95171875 24.40230469 -16.0909375 25.17960937 -16.234375 25.98046875 C-15.98633211 29.52635463 -14.5279306 30.94720792 -12.0625 33.4375 C-9.78448893 34.85417441 -9.78448893 34.85417441 -7.125 35.8125 C-6.08214844 36.22113281 -5.03929687 36.62976563 -3.96484375 37.05078125 C-0.93552943 38.15316246 2.11971504 39.16603166 5.18359375 40.16796875 C6.10986572 40.47105957 7.0361377 40.77415039 7.99047852 41.08642578 C9.84041303 41.68530587 11.69371261 42.27391058 13.55053711 42.85107422 C20.17570182 44.96861688 25.66833825 47.50372326 30.25 52.9375 C30.74113281 53.5046875 31.23226562 54.071875 31.73828125 54.65625 C35.45710617 60.17997691 34.44745016 68.1127015 33.9375 74.4375 C31.96032338 81.36836371 26.96494653 86.66310895 20.91015625 90.45703125 C9.18949068 96.28255018 -3.59167287 97.26303969 -16.0625 93.4375 C-17.44115234 93.01791016 -17.44115234 93.01791016 -18.84765625 92.58984375 C-24.57972606 90.68429699 -28.77711444 88.72288556 -33.0625 84.4375 C-34.63185594 81.29878812 -34.41451103 78.89894178 -34.0625 75.4375 C-31.875 72.5 -31.875 72.5 -29.0625 70.4375 C-24.68301287 69.85208632 -21.99945124 71.24315504 -18.1875 73.3125 C-9.8616522 77.60709789 -2.48612014 79.68566161 6.9375 78.4375 C11.42439708 76.60034529 14.25033309 74.46825036 16.9375 70.4375 C17.5213196 67.5225745 17.5213196 67.5225745 16.9375 64.4375 C13.37635627 60.10601399 9.63714519 58.14925393 4.4375 56.375 C3.73625 56.12242432 3.035 55.86984863 2.3125 55.60961914 C-2.10351165 54.041115 -6.56086405 52.67921228 -11.0625 51.375 C-19.54085678 48.81786891 -26.12222322 44.96167155 -31.0625 37.4375 C-33.67439622 31.14520457 -34.29083826 24.31676361 -32.22265625 17.78515625 C-28.35311029 9.12102135 -22.09705622 4.9558983 -13.60888672 1.26660156 C-9.10445084 -0.20003931 -4.69579843 -0.10004794 0 0 Z " fill="#FEFBFB" transform="translate(131.0625,291.5625)"/>
<path d="M0 0 C7.91172897 4.21875422 12.35785697 9.95757192 15.46875 18.31640625 C16.28125 21.94140625 16.28125 21.94140625 16.46875 25.31640625 C16.6234375 27.20359375 16.6234375 27.20359375 16.78125 29.12890625 C16.75091625 34.27553308 14.58329226 38.7097249 12.46875 43.31640625 C8.45438044 41.72204671 5.83406911 38.87461407 2.90625 35.81640625 C-1.9095576 30.45782838 -1.9095576 30.45782838 -8.40625 27.87890625 C-11.69841658 28.08642145 -11.69841658 28.08642145 -14.40625 30.44140625 C-16.66607946 33.13080753 -16.66607946 33.13080753 -17.28125 36.12890625 C-15.44668143 43.92582267 -7.45246849 49.394874 -1.53125 54.31640625 C-2.02625 55.30640625 -2.02625 55.30640625 -2.53125 56.31640625 C-10.18924887 58.86907254 -20.92554042 58.68629747 -28.21875 55.12890625 C-29.68596522 54.23862989 -31.12811853 53.3046039 -32.53125 52.31640625 C-33.40136719 51.74019531 -33.40136719 51.74019531 -34.2890625 51.15234375 C-39.79999963 47.08145049 -43.40927526 40.73866608 -45.53125 34.31640625 C-46.53968423 24.60729532 -45.68532198 17.06424347 -39.953125 9.1328125 C-29.90923687 -3.19583396 -14.6165914 -6.16906137 0 0 Z " fill="#F15744" transform="translate(241.53125,312.68359375)"/>
<path d="M0 0 C3.82669024 0.0479192 3.82669024 0.0479192 6.0625 1.5625 C8.34250025 5.18367686 8.24657534 8.39555103 8.23852539 12.55737305 C8.23844986 13.85849533 8.23837433 15.15961761 8.23829651 16.50016785 C8.23318985 17.9206852 8.22797385 19.34120217 8.22265625 20.76171875 C8.22079091 22.21474662 8.21936756 23.66777511 8.21836853 25.12080383 C8.21455246 28.94306172 8.20472993 32.76528155 8.19366455 36.58752441 C8.18343087 40.48868291 8.17886671 44.38984757 8.17382812 48.29101562 C8.16310686 55.94402776 8.14604135 63.59700854 8.125 71.25 C9.72154419 71.23428955 9.72154419 71.23428955 11.3503418 71.21826172 C15.31059386 71.18197924 19.2708313 71.15906955 23.23120117 71.14013672 C24.94314039 71.13009792 26.65506255 71.11646405 28.36694336 71.09912109 C30.83191142 71.07477927 33.29665215 71.06349562 35.76171875 71.0546875 C36.90419319 71.03920364 36.90419319 71.03920364 38.06974792 71.02340698 C43.09660681 71.02235285 46.73223238 71.68232466 50.9375 74.4375 C52.88856067 77.41543471 52.54891943 79.79808463 52.125 83.25 C49.76748958 86.44947843 47.94457269 87.52157267 44.125 88.25 C42.56431543 88.35762753 40.99998562 88.4180665 39.43579102 88.44287109 C38.51125626 88.45893402 37.5867215 88.47499695 36.63417053 88.49154663 C32.42856791 88.53617509 28.22311791 88.57702493 24.01733398 88.60009766 C21.79912852 88.61668663 19.58097714 88.64401493 17.36303711 88.68212891 C14.1597124 88.73685406 10.95763521 88.75876132 7.75390625 88.7734375 C6.76419327 88.79610687 5.77448029 88.81877625 4.754776 88.84213257 C3.82708908 88.83928253 2.89940216 88.8364325 1.94360352 88.83349609 C1.13182144 88.84158295 0.32003937 88.8496698 -0.51634216 88.85800171 C-4.15593594 87.91980745 -5.6204744 86.20843922 -7.875 83.25 C-8.36120535 80.51890309 -8.54222762 78.41459566 -8.49023438 75.69335938 C-8.49578339 74.94963577 -8.5013324 74.20591217 -8.50704956 73.43965149 C-8.51882465 70.99035447 -8.49459501 68.54291657 -8.46875 66.09375 C-8.46703823 64.38651616 -8.46710526 62.67927969 -8.46887207 60.9720459 C-8.46722005 57.39761131 -8.44854443 53.82380482 -8.41699219 50.24951172 C-8.37731469 45.67286551 -8.37294762 41.09704161 -8.38045502 36.52025604 C-8.38352781 32.99599707 -8.37139323 29.47192221 -8.35432434 25.94770813 C-8.34730412 24.26045385 -8.34416862 22.57317871 -8.34501648 20.88591003 C-8.34321423 18.52577161 -8.32179726 16.16660969 -8.29492188 13.80664062 C-8.29785248 13.11246536 -8.30078308 12.4182901 -8.30380249 11.70307922 C-8.19236217 5.3450974 -6.6812376 0.43104759 0 0 Z " fill="#FEFBFA" transform="translate(300.875,295.75)"/>
</svg>
