<?xml version="1.0" encoding="UTF-8"?>
<svg version="1.1" xmlns="http://www.w3.org/2000/svg" width="512" height="512">
<path d="M0 0 C0.9833432 0.00054382 1.9666864 0.00108765 2.97982788 0.00164795 C62.75075242 0.1529928 120.72793106 21.21458909 166.125 60.375 C166.87007813 61.00921875 167.61515625 61.6434375 168.3828125 62.296875 C181.88779833 74.10801515 194.55918743 86.85860228 205.125 101.375 C205.98149066 102.52494831 206.83826433 103.67468589 207.6953125 104.82421875 C213.7359414 113.01589526 219.09505071 121.53145078 224.125 130.375 C224.48948242 131.00680176 224.85396484 131.63860352 225.22949219 132.28955078 C240.12785669 158.31895284 249.77147542 187.73610489 254.125 217.375 C254.30232666 218.57962891 254.47965332 219.78425781 254.66235352 221.02539062 C256.261325 232.68267354 256.4834053 244.24686098 256.4375 256 C256.43476578 257.45483292 256.43476578 257.45483292 256.43197632 258.9390564 C256.38658309 273.29056055 255.8812347 287.25442918 253.125 301.375 C252.96402832 302.27202637 252.80305664 303.16905273 252.63720703 304.09326172 C241.81462011 363.90338904 207.75685543 421.41745829 159.125 458.375 C158.58472168 458.79168945 158.04444336 459.20837891 157.48779297 459.63769531 C147.4927884 467.3209873 137.03290964 474.06342968 126.125 480.375 C125.44775879 480.76929199 124.77051758 481.16358398 124.07275391 481.56982422 C101.1541244 494.75211173 75.57927437 503.35760918 49.75 508.6875 C49.03932373 508.83493652 48.32864746 508.98237305 47.59643555 509.13427734 C31.95391634 512.11963787 16.31830394 512.7498098 0.4375 512.6875 C-0.52989105 512.68567719 -1.4972821 512.68385437 -2.49398804 512.68197632 C-16.82690977 512.63654826 -30.77273917 512.12766072 -44.875 509.375 C-45.77202637 509.21402832 -46.66905273 509.05305664 -47.59326172 508.88720703 C-107.40338904 498.06462011 -164.91745829 464.00685543 -201.875 415.375 C-202.29168945 414.83472168 -202.70837891 414.29444336 -203.13769531 413.73779297 C-210.8209873 403.7427884 -217.56342968 393.28290964 -223.875 382.375 C-224.26929199 381.69775879 -224.66358398 381.02051758 -225.06982422 380.32275391 C-238.25211173 357.4041244 -246.85760918 331.82927437 -252.1875 306 C-252.33493652 305.28932373 -252.48237305 304.57864746 -252.63427734 303.84643555 C-255.61963787 288.20391634 -256.2498098 272.56830394 -256.1875 256.6875 C-256.18567719 255.72010895 -256.18385437 254.7527179 -256.18197632 253.75601196 C-256.13654826 239.42309023 -255.62766072 225.47726083 -252.875 211.375 C-252.63354248 210.02946045 -252.63354248 210.02946045 -252.38720703 208.65673828 C-241.56462011 148.84661096 -207.50685543 91.33254171 -158.875 54.375 C-158.33472168 53.95831055 -157.79444336 53.54162109 -157.23779297 53.11230469 C-147.2427884 45.4290127 -136.78290964 38.68657032 -125.875 32.375 C-125.19775879 31.98070801 -124.52051758 31.58641602 -123.82275391 31.18017578 C-100.9041244 17.99788827 -75.32927437 9.39239082 -49.5 4.0625 C-48.78932373 3.91506348 -48.07864746 3.76762695 -47.34643555 3.61572266 C-31.65593036 0.62120405 -15.93131174 -0.03336894 0 0 Z " fill="#006BC0" transform="translate(255.875,-0.375)"/>
<path d="M0 0 C11.5752713 3.92382078 18.47400054 12.32043234 23.875 22.875 C28.60981017 32.49982315 31.82802106 42.50651329 32.6875 53.25 C33.41026123 53.08918945 34.13302246 52.92837891 34.87768555 52.76269531 C52.27401821 49.58845788 71.52769104 52.50533397 87.6875 59.25 C88.11858807 62.59093255 88.43189774 65.8923157 88.6875 69.25 C88.75098633 69.9414209 88.81447266 70.6328418 88.87988281 71.34521484 C90.01998104 84.87730381 90.01998104 84.87730381 87.03125 90.19921875 C84.7304567 92.58507659 82.44079843 94.40898851 79.6875 96.25 C78.90632813 96.806875 78.12515625 97.36375 77.3203125 97.9375 C61.62558062 108.22912746 42.20826782 112.2334036 23.6875 111.25 C23.57535156 112.06726563 23.46320313 112.88453125 23.34765625 113.7265625 C19.84146461 132.44008237 10.53843339 149.81153557 -0.3125 165.25 C-0.69680176 165.7980127 -1.08110352 166.34602539 -1.47705078 166.91064453 C-13.92128769 184.32641315 -29.90397167 198.9396214 -47.3125 211.25 C-48.46096783 212.09110442 -49.60940663 212.93224849 -50.7578125 213.7734375 C-88.04073574 240.42170021 -135.11848588 255.21424863 -180.3125 260.25 C-181.58275024 260.39574463 -181.58275024 260.39574463 -182.87866211 260.54443359 C-207.82056999 263.02504116 -235.76106699 263.52209719 -260.3125 258.25 C-261.74360107 257.94400879 -261.74360107 257.94400879 -263.20361328 257.63183594 C-275.82663361 254.82672031 -287.79046205 251.15364916 -299.3125 245.25 C-300.22999023 244.78207031 -300.22999023 244.78207031 -301.16601562 244.3046875 C-319.54978123 234.75367095 -334.29159268 220.67841158 -345.3125 203.25 C-345.91578125 202.3425 -346.5190625 201.435 -347.140625 200.5 C-353.06142936 191.11205796 -356.6273624 180.66429559 -360.3125 170.25 C-360.57844971 169.51716797 -360.84439941 168.78433594 -361.1184082 168.02929688 C-367.43878585 150.02788742 -368.67170632 131.64068001 -368.45703125 112.7578125 C-368.44539525 110.95125999 -368.43485048 109.14470011 -368.42541504 107.33813477 C-368.4003074 102.97523617 -368.36060467 98.61270313 -368.3125 94.25 C-367.60647056 94.24940291 -366.90044112 94.24880582 -366.17301685 94.24819064 C-324.30300029 94.21227576 -282.43305643 94.15560463 -240.56310647 94.07207905 C-235.53271254 94.06206191 -230.5023183 94.05221773 -225.47192383 94.04248047 C-224.4704873 94.0405391 -223.46905077 94.03859772 -222.43726768 94.03659752 C-206.23447151 94.00559915 -190.03168949 93.98860291 -173.82886926 93.97680578 C-157.19611365 93.96438301 -140.56343217 93.93685619 -123.93072337 93.89538693 C-113.67223361 93.87028378 -103.41386685 93.8568804 -93.15534594 93.85857043 C-86.11516205 93.85860024 -79.0751032 93.84392327 -72.03496806 93.81783572 C-67.97667034 93.803227 -63.91862903 93.79495469 -59.8603096 93.80419731 C-56.13699883 93.81253307 -52.41420142 93.80219721 -48.69096645 93.77766338 C-46.72223011 93.76936372 -44.75344063 93.78046356 -42.78472358 93.79249835 C-33.50474114 93.70369703 -24.19102204 92.50234803 -16.3125 87.25 C-16.92991352 82.9981213 -17.91788885 79.08178964 -19.25 75 C-25.15764226 55.88072142 -25.77084823 36.41364327 -16.3125 18.25 C-6.88384844 0.51953573 -6.88384844 0.51953573 0 0 Z " fill="#F1F1F1" transform="translate(423.3125,164.75)"/>
<path d="M0 0 C14.85 0 29.7 0 45 0 C45 13.86 45 27.72 45 42 C30.15 42 15.3 42 0 42 C0 28.14 0 14.28 0 0 Z " fill="#EEEFF1" transform="translate(318,207)"/>
<path d="M0 0 C14.85 0 29.7 0 45 0 C45 13.86 45 27.72 45 42 C30.15 42 15.3 42 0 42 C0 28.14 0 14.28 0 0 Z " fill="#EEEFF1" transform="translate(261,207)"/>
<path d="M0 0 C14.85 0 29.7 0 45 0 C45 13.53 45 27.06 45 41 C30.15 41 15.3 41 0 41 C0 27.47 0 13.94 0 0 Z " fill="#F0F1F1" transform="translate(204,208)"/>
<path d="M0 0 C14.85 0 29.7 0 45 0 C45 13.53 45 27.06 45 41 C30.15 41 15.3 41 0 41 C0 27.47 0 13.94 0 0 Z " fill="#F0F1F1" transform="translate(147,208)"/>
<path d="M0 0 C14.85 0 29.7 0 45 0 C45 13.53 45 27.06 45 41 C30.15 41 15.3 41 0 41 C0 27.47 0 13.94 0 0 Z " fill="#F0F1F1" transform="translate(90,208)"/>
<path d="M0 0 C14.85 0 29.7 0 45 0 C45 13.53 45 27.06 45 41 C30.15 41 15.3 41 0 41 C0 27.47 0 13.94 0 0 Z " fill="#F1F1F1" transform="translate(261,155)"/>
<path d="M0 0 C14.85 0 29.7 0 45 0 C45 13.53 45 27.06 45 41 C30.15 41 15.3 41 0 41 C0 27.47 0 13.94 0 0 Z " fill="#F1F1F1" transform="translate(204,155)"/>
<path d="M0 0 C14.85 0 29.7 0 45 0 C45 13.53 45 27.06 45 41 C30.15 41 15.3 41 0 41 C0 27.47 0 13.94 0 0 Z " fill="#F1F1F1" transform="translate(147,155)"/>
<path d="M0 0 C14.85 0 29.7 0 45 0 C45 13.53 45 27.06 45 41 C30.15 41 15.3 41 0 41 C0 27.47 0 13.94 0 0 Z " fill="#F2F2F2" transform="translate(261,102)"/>
</svg>
