<?xml version="1.0" encoding="UTF-8"?>
<svg version="1.1" xmlns="http://www.w3.org/2000/svg" width="128" height="128">
<path d="M0 0 C2.37570543 -0.0816082 4.74855841 -0.14077222 7.125 -0.1875 C7.79015625 -0.21263672 8.4553125 -0.23777344 9.140625 -0.26367188 C13.87936619 -0.33335925 16.97513494 0.52681852 21 3 C28.44936201 10.44936201 29.99184167 22.3221873 30.3125 32.4375 C30.09977698 42.36457431 27.43810848 52.7549627 20.9375 60.4375 C17.75103005 63.00723383 15.01280365 63.12345794 11.06958008 63.11352539 C10.06876907 63.11344986 9.06795807 63.11337433 8.03681946 63.11329651 C6.95861435 63.10813522 5.88040924 63.10297394 4.76953125 63.09765625 C3.66397385 63.0962413 2.55841644 63.09482635 1.4193573 63.09336853 C-2.11628917 63.08776514 -5.65187262 63.07521204 -9.1875 63.0625 C-11.58268138 63.05748544 -13.97786375 63.05292246 -16.37304688 63.04882812 C-22.24871947 63.03779461 -28.12435523 63.02105316 -34 63 C-34 63.99 -34 64.98 -34 66 C-23.77 66 -13.54 66 -3 66 C-2.938125 68.536875 -2.87625 71.07375 -2.8125 73.6875 C-2.77153198 74.87218872 -2.77153198 74.87218872 -2.72973633 76.08081055 C-2.67618606 80.634887 -3.21382156 83.39242461 -6 87 C-14.67456447 95.47283042 -24.76511352 96.24682981 -36.35424805 96.25097656 C-42.66426352 96.17556488 -48.20079334 95.66418999 -54 93 C-54.66128906 92.7215625 -55.32257812 92.443125 -56.00390625 92.15625 C-60.67184921 89.8953674 -63.09605865 86.70013881 -65 82 C-65.52224067 79.12861272 -65.53946814 76.34624905 -65.49609375 73.43359375 C-65.49754898 72.63647476 -65.49900421 71.83935577 -65.50050354 71.01808167 C-65.49885282 69.34315309 -65.48738478 67.66820803 -65.46655273 65.9934082 C-65.43753875 63.44090945 -65.44597221 60.8904844 -65.45898438 58.33789062 C-65.45274741 56.70311499 -65.44435679 55.06834585 -65.43359375 53.43359375 C-65.43652939 52.67719101 -65.43946503 51.92078827 -65.44248962 51.14146423 C-65.34564572 45.6616525 -64.24173661 41.45773727 -60.5 37.35546875 C-55.15124366 33.19068192 -51.25540467 32.85887415 -44.67578125 32.82421875 C-42.99022205 32.80100898 -41.30467515 32.77689118 -39.61914062 32.75195312 C-36.97070208 32.71694742 -34.32271323 32.68755198 -31.67407227 32.67407227 C-29.11159024 32.65848977 -26.55041344 32.61820768 -23.98828125 32.57421875 C-22.817528 32.57708138 -22.817528 32.57708138 -21.62312317 32.58000183 C-14.84161357 32.43099016 -9.46582478 30.46582478 -4.625 25.625 C-1.1484773 20.00907872 -0.63657582 14.55540548 -0.375 8.125 C-0.33632812 7.34125 -0.29765625 6.5575 -0.2578125 5.75 C-0.16433378 3.83368633 -0.08111505 1.91687681 0 0 Z M-20.9375 76.0625 C-22.51345523 78.93630072 -21.80501033 80.91412709 -21 84 C-19.88833136 85.33187793 -19.88833136 85.33187793 -17.0625 85.1875 C-13.89107141 85.33278733 -13.89107141 85.33278733 -12 83 C-12.32326553 79.40320934 -12.32326553 79.40320934 -13 76 C-17.07700925 74.87562307 -17.07700925 74.87562307 -20.9375 76.0625 Z " fill="#FFDE57" transform="translate(98,32)"/>
<path d="M0 0 C1.2375 -0.020625 2.475 -0.04125 3.75 -0.0625 C12.11447565 -0.09809351 18.96670987 0.54966492 26.125 5.0625 C30.91510781 9.99349333 31.70951608 14.99693619 31.68359375 21.6484375 C31.6888356 22.44222809 31.69407745 23.23601868 31.69947815 24.05386353 C31.70587555 25.72632686 31.70459101 27.39883533 31.69604492 29.07128906 C31.68754733 31.61085411 31.71630509 34.1481574 31.74804688 36.6875 C31.74965963 38.32031183 31.74907993 39.9531276 31.74609375 41.5859375 C31.75732773 42.33515472 31.76856171 43.08437195 31.78013611 43.85629272 C31.70868742 49.34614456 30.58281852 53.80152254 27.25 58.25 C22.57656236 62.47805689 17.55914486 62.81803525 11.5 62.75390625 C10.27458496 62.7680381 10.27458496 62.7680381 9.02441406 62.78245544 C6.43268347 62.81094331 3.84187389 62.81418993 1.25 62.8125 C-1.34173868 62.8161211 -3.93281285 62.82579102 -6.52441406 62.85325623 C-8.13044934 62.86989667 -9.73670291 62.873038 -11.34277344 62.86024475 C-17.80892461 62.92058243 -22.43968206 64.30723264 -27.5 68.5625 C-32.35288907 74.35900639 -33.23364225 79.32106808 -33.4375 86.625 C-33.48874023 87.87216797 -33.48874023 87.87216797 -33.54101562 89.14453125 C-33.62287146 91.17923351 -33.68812701 93.21459208 -33.75 95.25 C-36.29283234 95.35871967 -38.83095088 95.43762401 -41.375 95.5 C-42.08785156 95.53351563 -42.80070312 95.56703125 -43.53515625 95.6015625 C-48.76602066 95.69754166 -51.56489909 94.64061987 -55.75 91.25 C-62.71220668 84.48671351 -63.69005296 73.43200729 -64 64.1875 C-63.90191198 55.31053453 -62.8610123 45.07995493 -56.75 38.25 C-50.30314315 32.14245141 -43.75519254 31.96335753 -35.3203125 32.0546875 C-34.32998016 32.0575174 -33.33964783 32.06034729 -32.31930542 32.06326294 C-29.17107824 32.0744153 -26.02314051 32.09951093 -22.875 32.125 C-20.73437912 32.13503618 -18.59375376 32.14416092 -16.453125 32.15234375 C-11.21865203 32.17433842 -5.9843467 32.20776667 -0.75 32.25 C-0.75 31.26 -0.75 30.27 -0.75 29.25 C-10.65 29.25 -20.55 29.25 -30.75 29.25 C-30.811875 26.40375 -30.87375 23.5575 -30.9375 20.625 C-30.97846802 19.29734619 -30.97846802 19.29734619 -31.02026367 17.94287109 C-31.07212804 12.98731452 -30.65149187 9.46391835 -27.75 5.25 C-25.6640625 3.82421875 -25.6640625 3.82421875 -23.375 2.9375 C-22.62476563 2.63199219 -21.87453125 2.32648437 -21.1015625 2.01171875 C-14.16210853 -0.23611102 -7.22547936 0.02973448 0 0 Z M-21.75 12.25 C-22.16666667 15.25 -22.16666667 15.25 -21.75 18.25 C-19.86340125 20.55662599 -19.86340125 20.55662599 -16.75 20.5625 C-15.76 20.459375 -14.77 20.35625 -13.75 20.25 C-11.45362221 17.49104365 -11.45362221 17.49104365 -12 14.6875 C-12.58808052 12.09999433 -12.58808052 12.09999433 -14.75 10.25 C-18.79622502 9.88019987 -18.79622502 9.88019987 -21.75 12.25 Z " fill="#3D79AA" transform="translate(63.75,-0.25)"/>
</svg>
