<?xml version="1.0" encoding="UTF-8"?>
<svg version="1.1" xmlns="http://www.w3.org/2000/svg" width="512" height="512">
<path d="M0 0 C1.18055926 -0.00384115 2.36111852 -0.00768229 3.5774523 -0.01163983 C4.8705253 -0.01077335 6.1635983 -0.00990687 7.49585533 -0.00901413 C8.88651435 -0.01159878 10.27717262 -0.01461222 11.66782987 -0.01801753 C15.48903206 -0.0260792 19.31021546 -0.02787664 23.13142514 -0.028615 C27.25292733 -0.03046702 31.3744198 -0.03801515 35.49591637 -0.04475021 C44.50846679 -0.05832853 53.52101277 -0.06435758 62.53357172 -0.06876087 C68.16251437 -0.07152436 73.79145531 -0.07576193 79.4203968 -0.08026505 C95.00917071 -0.09245747 110.59794323 -0.10275657 126.1867218 -0.10614014 C127.18433162 -0.1063597 128.18194143 -0.10657927 129.20978185 -0.10680549 C130.20976372 -0.10702377 131.20974558 -0.10724204 132.24002993 -0.10746694 C134.26633493 -0.1079104 136.29263993 -0.10835696 138.31894493 -0.10880661 C139.82661724 -0.10913875 139.82661724 -0.10913875 141.36474757 -0.10947761 C157.64619931 -0.11342446 173.92760627 -0.13087517 190.20904072 -0.15416613 C206.9300474 -0.17789256 223.65103162 -0.19034259 240.37205541 -0.19150805 C249.75819168 -0.19242413 259.14426961 -0.19815944 268.53038979 -0.21632767 C276.5240334 -0.23174612 284.51760063 -0.23683885 292.51125629 -0.22858956 C296.58754771 -0.22468913 300.66368541 -0.22558288 304.73995781 -0.23964691 C308.47704421 -0.25242239 312.21386194 -0.25115658 315.95094816 -0.2390562 C317.93188267 -0.23618658 319.91282198 -0.24800733 321.89371932 -0.26047826 C339.10020682 -0.16568848 353.78022413 6.059988 366.13681602 18.13142776 C379.15182182 33.12311532 382.6029771 49.67288316 382.52449608 68.96280289 C382.5286755 70.64539131 382.53415633 72.32797692 382.54081589 74.01055735 C382.5552096 78.60638489 382.55104485 83.20203217 382.54364908 87.79786932 C382.53890458 92.7652888 382.55143861 97.73266999 382.56166649 102.70007706 C382.57883506 112.42111408 382.57969848 122.14208641 382.57445358 131.86313466 C382.57040683 139.76747498 382.57186145 147.67179622 382.57720184 155.57613564 C382.57795027 156.7025263 382.57869869 157.82891696 382.57946979 158.98944068 C382.58100132 161.2779523 382.58253967 163.56646393 382.58408476 165.85497554 C382.59780292 187.30137391 382.59237704 208.74773577 382.58089954 230.1941333 C382.57096916 249.79624799 382.58390572 269.39826827 382.60783374 289.00036839 C382.63224137 309.14782164 382.64182843 329.29523093 382.63518101 349.44269866 C382.63169233 360.74593488 382.63389761 372.04909852 382.65143204 383.35232353 C382.66617486 392.97503781 382.6667623 402.59762838 382.64936113 412.22034029 C382.6408657 417.12552987 382.63866588 422.03049867 382.65401268 426.93567657 C382.66791334 431.43450485 382.66302796 435.93292432 382.64377344 440.43172928 C382.64002954 442.0507373 382.64288847 443.6697785 382.6533851 445.28875683 C382.76434994 463.72925393 378.63891182 481.2183447 365.48447227 495.00642776 C354.56420689 504.8909941 341.31450799 512.24445493 326.27363205 512.26285553 C325.09307279 512.26669667 323.91251353 512.27053782 322.69617975 512.27449536 C321.40310675 512.27362888 320.11003375 512.2727624 318.77777672 512.27186966 C317.3871177 512.27445431 315.99645943 512.27746775 314.60580218 512.28087306 C310.78459999 512.28893473 306.96341659 512.29073217 303.14220691 512.29147053 C299.02070472 512.29332255 294.89921225 512.30087068 290.77771568 512.30760574 C281.76516526 512.32118406 272.75261928 512.32721311 263.74006033 512.3316164 C258.11111768 512.33437989 252.48217674 512.33861746 246.85323524 512.34312057 C231.26446134 512.355313 215.67568881 512.3656121 200.08691025 512.36899567 C199.08930043 512.36921523 198.09169062 512.3694348 197.0638502 512.36966102 C195.5638774 512.36998843 195.5638774 512.36998843 194.03360212 512.37032247 C192.00729712 512.37076593 189.98099212 512.37121249 187.95468712 512.37166214 C186.44701481 512.37199428 186.44701481 512.37199428 184.90888448 512.37233314 C168.62743274 512.37627999 152.34602578 512.3937307 136.06459133 512.41702166 C119.34358465 512.44074809 102.62260043 512.45319812 85.90157664 512.45436358 C76.51544037 512.45527966 67.12936244 512.46101497 57.74324226 512.4791832 C49.74959865 512.49460165 41.75603142 512.49969438 33.76237576 512.49144509 C29.68608434 512.48754466 25.60994664 512.4884384 21.53367424 512.50250244 C17.79658784 512.51527792 14.05977011 512.51401211 10.32268389 512.50191173 C8.34174938 512.49904211 6.36081007 512.51086286 4.37991273 512.52333379 C-12.82657477 512.42854401 -27.50659209 506.20286753 -39.86318398 494.13142776 C-52.87818977 479.13974021 -56.32934505 462.58997237 -56.25086403 443.30005264 C-56.25504345 441.61746422 -56.26052428 439.93487861 -56.26718384 438.25229818 C-56.28157755 433.65647064 -56.27741281 429.06082336 -56.27001703 424.46498621 C-56.26527253 419.49756673 -56.27780656 414.53018554 -56.28803444 409.56277847 C-56.30520301 399.84174145 -56.30606643 390.12076912 -56.30082154 380.39972087 C-56.29677478 372.49538055 -56.2982294 364.59105931 -56.30356979 356.68671989 C-56.30431822 355.56032923 -56.30506664 354.43393857 -56.30583774 353.27341485 C-56.30736927 350.98490323 -56.30890762 348.6963916 -56.31045271 346.40787999 C-56.32417087 324.96148162 -56.31874499 303.51511976 -56.30726749 282.06872223 C-56.29733711 262.46660754 -56.31027367 242.86458726 -56.33420169 223.26248714 C-56.35860932 203.11503389 -56.36819638 182.9676246 -56.36154896 162.82015687 C-56.35806028 151.51692065 -56.36026556 140.21375701 -56.37779999 128.910532 C-56.39254281 119.28781772 -56.39313025 109.66522714 -56.37572908 100.04251524 C-56.36723365 95.13732566 -56.36503383 90.23235686 -56.38038063 85.32717896 C-56.39428129 80.82835068 -56.38939592 76.32993121 -56.37014139 71.83112625 C-56.36639749 70.21211823 -56.36925642 68.59307703 -56.37975305 66.9740987 C-56.49071789 48.5336016 -52.36527977 31.04451083 -39.21084023 17.25642776 C-28.29057484 7.37186143 -15.04087594 0.0184006 0 0 Z " fill="#8062A6" transform="translate(92.86318397521973,-0.13142776489257813)"/>
<path d="M0 0 C28.153125 -0.061875 56.30625 -0.12375 85.3125 -0.1875 C94.19196533 -0.21481201 103.07143066 -0.24212402 112.2199707 -0.27026367 C123.08825684 -0.28381348 123.08825684 -0.28381348 128.18107605 -0.28633118 C131.72731695 -0.28911874 135.27342223 -0.30033168 138.81962585 -0.31672668 C143.3522232 -0.33740236 147.88462517 -0.34345536 152.4172653 -0.33921683 C154.07498691 -0.34010229 155.73271582 -0.34599278 157.39039671 -0.35764539 C176.41237529 -0.48507777 192.07858121 4.39984472 206 18 C219.01500579 32.99168756 222.46616107 49.5414554 222.38768005 68.83137512 C222.39185947 70.51396355 222.39734031 72.19654915 222.40399987 73.87912959 C222.41839357 78.47495713 222.41422883 83.07060441 222.40683305 87.66644156 C222.40208855 92.63386103 222.41462259 97.60124223 222.42485046 102.56864929 C222.44201904 112.28968632 222.44288245 122.01065865 222.43763756 131.73170689 C222.43359081 139.63604721 222.43504542 147.54036846 222.44038582 155.44470787 C222.44113424 156.57109853 222.44188266 157.6974892 222.44265376 158.85801291 C222.44418529 161.14652454 222.44572364 163.43503616 222.44726873 165.72354778 C222.46098689 187.16994615 222.45556101 208.61630801 222.44408352 230.06270554 C222.43415313 249.66482023 222.44708969 269.2668405 222.47101771 288.86894063 C222.49542534 309.01639387 222.50501241 329.16380317 222.49836498 349.31127089 C222.49487631 360.61450712 222.49708158 371.91767075 222.51461601 383.22089577 C222.52935883 392.84361004 222.52994628 402.46620062 222.5125451 412.08891252 C222.50404968 416.99410211 222.50184985 421.89907091 222.51719666 426.80424881 C222.53109732 431.30307709 222.52621194 435.80149656 222.50695742 440.30030151 C222.50321351 441.91930954 222.50607245 443.53835074 222.51656907 445.15732906 C222.62753391 463.59782617 218.50209579 481.08691693 205.34765625 494.875 C193.91940839 505.21937078 180.52772695 512.13167595 164.86894226 512.12025452 C164.16399628 512.12111053 163.45905029 512.12196655 162.73274231 512.12284851 C160.36957246 512.12450012 158.00647389 512.11898588 155.64331055 512.11352539 C153.9205847 512.11321899 152.19785873 512.11335266 150.47513294 512.11389065 C145.86343903 512.11411633 141.2517711 512.1083221 136.64008331 512.10128021 C132.31201598 512.09558364 127.98395494 512.095317 123.65588379 512.09460449 C110.99975242 512.08935799 98.34362588 512.07539683 85.6875 512.0625 C57.410625 512.041875 29.13375 512.02125 0 512 C0 429.17 0 346.34 0 261 C47.25258978 252.66130769 47.25258978 252.66130769 55.41796875 257.66015625 C59.39611235 261.02930009 62.0169807 264.87239147 63 270 C63.09126675 272.47329662 63.1305963 274.91757742 63.12025452 277.39044189 C63.12110894 278.13706612 63.12196337 278.88369035 63.12284368 279.65293956 C63.1244913 282.15569502 63.11898884 284.65838352 63.11352539 287.16113281 C63.11324334 288.95480345 63.11340161 290.7484742 63.1139679 292.54214478 C63.11425516 297.41366346 63.10836977 302.2851576 63.10139394 307.15667057 C63.09514872 312.24692219 63.09455567 317.33717434 63.09336853 322.4274292 C63.09025867 332.06752772 63.08204991 341.70761493 63.07201904 351.34770846 C63.06084721 362.3221979 63.05534475 373.29668788 63.05032361 384.27118158 C63.03986703 406.84746211 63.02152581 429.42372712 63 452 C82.8 452 102.6 452 123 452 C122.95963461 427.76406037 122.90276391 403.52834057 122.81609726 379.29252625 C122.77637538 368.03811419 122.74394816 356.78377136 122.72900391 345.52929688 C122.7159518 335.7139888 122.6888967 325.8988335 122.64538693 316.08361149 C122.62285197 310.89186759 122.60708452 305.70031155 122.60811615 300.5085144 C122.60886749 295.6099006 122.59072816 290.71170082 122.55883217 285.81319427 C122.55039649 284.02677045 122.54853953 282.24029983 122.55419731 280.45386505 C122.6189846 256.82873089 115.97024376 235.77640228 100 218 C82.37137393 201.65919325 62.15235046 194.95492904 38.37109375 195.69921875 C31.81906435 196.0141651 25.45164172 196.78827034 19 198 C16.85499986 198.37973687 14.70918088 198.75488261 12.5625 199.125 C11.65628906 199.29257813 10.75007813 199.46015625 9.81640625 199.6328125 C7 200 7 200 0 200 C0 134 0 68 0 0 Z " fill="#564D80" transform="translate(253,0)"/>
<path d="M0 0 C19.8 0 39.6 0 60 0 C60 49.5 60 99 60 150 C86.1555336 145.42827304 86.1555336 145.42827304 112.3046875 140.8203125 C117.24609375 139.9453125 117.24609375 139.9453125 119.55810547 139.53613281 C121.15662156 139.25247622 122.754916 138.96756872 124.35302734 138.68164062 C152.87415668 133.58401048 180.80822988 131.19615889 206 148 C223.83849136 160.58431671 235.26165364 179.28775453 239.53789425 200.69242287 C240.0604374 204.43258789 240.13562103 208.0919593 240.12025452 211.85873413 C240.12153615 213.01798572 240.12153615 213.01798572 240.12284368 214.20065653 C240.12448565 216.78011651 240.11899818 219.35951089 240.11352539 221.93896484 C240.11324322 223.79204303 240.11340185 225.64512134 240.1139679 227.49819946 C240.11425469 232.52248712 240.108377 237.54675089 240.10139394 242.571033 C240.09514078 247.82409767 240.09455505 253.07716289 240.09336853 258.33023071 C240.09026101 268.27483979 240.08205541 278.21943788 240.07201904 288.16404212 C240.06083994 299.48681803 240.05534292 310.80959447 240.05032361 322.13237453 C240.03987233 345.42159052 240.02153402 368.71079143 240 392 C220.2 392 200.4 392 180 392 C179.98541748 386.5233374 179.97083496 381.0466748 179.95581055 375.40405273 C179.90551649 357.32701969 179.83908125 339.25007275 179.76428509 321.17312527 C179.7193232 310.21104837 179.67990939 299.24900399 179.65356445 288.28686523 C179.63058762 278.73205444 179.59719301 269.17734652 179.55129844 259.6226173 C179.52736208 254.56365213 179.50863597 249.50478887 179.50238609 244.44576836 C179.49633717 239.6826653 179.47634406 234.919823 179.44572449 230.15681648 C179.43694122 228.41015051 179.43322228 226.66345047 179.43499184 224.91676331 C179.43664761 222.52794372 179.41992017 220.1399162 179.39872742 217.75120544 C179.40357499 217.06344274 179.40842257 216.37568004 179.41341704 215.66707605 C179.32247742 209.43634408 177.65979598 204.96554787 173.625 200.1875 C167.01769233 194.68141028 159.14438697 195.43808449 151 196 C145.72398478 196.65318887 140.52718976 197.60883007 135.3125 198.625 C132.68409504 199.12010871 130.05536773 199.61282842 127.42578125 200.1015625 C126.68961075 200.23917999 125.95344025 200.37679749 125.19496155 200.51858521 C112.99490074 202.77291689 100.74076473 204.73048417 88.50112534 206.75609589 C80.03452597 208.15798794 71.57087146 209.57731477 63.10725975 210.99711227 C57.96940142 211.8585784 52.83115506 212.71772679 47.69294262 213.57707787 C43.31974399 214.30860684 38.9467101 215.0410979 34.57397461 215.77539062 C30.23401546 216.50412949 25.89366981 217.23052326 21.55304146 217.95526505 C19.92259034 218.22792664 18.29228154 218.50144075 16.66212273 218.77584457 C14.41826515 219.15342812 12.17392596 219.52800802 9.92944336 219.90185547 C8.02381874 220.22112503 8.02381874 220.22112503 6.07969666 220.54684448 C3 221 3 221 0 221 C0 148.07 0 75.14 0 0 Z " fill="#EEF5F8" transform="translate(136,60)"/>
<path d="M0 0 C19.8 0 39.6 0 60 0 C60 49.5 60 99 60 150 C73.2 147.69 86.4 145.38 100 143 C112 141 112 141 117 141 C117 161.13 117 181.26 117 202 C109.36037109 203.27230469 109.36037109 203.27230469 101.56640625 204.5703125 C89.59282979 206.56504455 77.62011686 208.56483936 65.64852905 210.57147217 C59.66345555 211.57464382 53.6780908 212.57607289 47.69266319 213.57712936 C43.31955665 214.30863484 38.94661671 215.04111358 34.57397461 215.77539062 C30.23401546 216.50412949 25.89366981 217.23052326 21.55304146 217.95526505 C19.92259034 218.22792664 18.29228154 218.50144075 16.66212273 218.77584457 C14.41826515 219.15342812 12.17392596 219.52800802 9.92944336 219.90185547 C8.02381874 220.22112503 8.02381874 220.22112503 6.07969666 220.54684448 C3 221 3 221 0 221 C0 148.07 0 75.14 0 0 Z " fill="#FEFEFE" transform="translate(136,60)"/>
<path d="M0 0 C19.8 0 39.6 0 60 0 C60 19.94707415 59.11011379 40.59879582 54 60 C53 61 53 61 50.52598572 61.12025452 C49.42678299 61.11803391 48.32758026 61.11581329 47.19506836 61.11352539 C45.33325172 61.11341209 45.33325172 61.11341209 43.43382263 61.11329651 C42.0691626 61.10818911 40.70450298 61.1029731 39.33984375 61.09765625 C37.95121817 61.095792 36.56259193 61.09436813 35.17396545 61.09336853 C31.51278885 61.08954387 27.8516517 61.07971403 24.19049072 61.06866455 C20.45707737 61.05844932 16.72365766 61.05387067 12.99023438 61.04882812 C5.66013823 61.03809171 -1.66992536 61.02101591 -9 61 C-8.68763105 59.43527657 -8.3750986 57.87058577 -8.0625 56.3059082 C-7.80146484 54.99889702 -7.80146484 54.99889702 -7.53515625 53.66548157 C-7.0289745 51.14431485 -6.51614792 48.62461166 -6 46.10546875 C-2.83376544 30.59325325 -0.88751356 15.97524403 0 0 Z " fill="#EDF4F8" transform="translate(316,60)"/>
<path d="M0 0 C6.01943171 4.01295447 11.73564464 8.0233653 17.375 12.5 C24.55082891 18.14155072 31.83600802 23.60826754 39.2019043 28.99853516 C45.8842669 33.89460653 52.46542901 38.90843122 59 44 C57.62803826 47.22417499 56.23080266 48.8673217 53.38671875 50.890625 C52.64397705 51.42703613 51.90123535 51.96344727 51.13598633 52.51611328 C49.9239856 53.37438721 49.9239856 53.37438721 48.6875 54.25 C46.95453396 55.50095009 45.22280795 56.75361943 43.4921875 58.0078125 C42.13818848 58.98669434 42.13818848 58.98669434 40.75683594 59.98535156 C36.22396257 63.2978977 31.76898512 66.71075406 27.3125 70.125 C25.5639849 71.46117677 23.81528922 72.79711726 22.06640625 74.1328125 C20.80014404 75.10009277 20.80014404 75.10009277 19.50830078 76.08691406 C15.59761744 79.06959993 11.67781614 82.03991966 7.75 85 C7.07622314 85.51062988 6.40244629 86.02125977 5.70825195 86.54736328 C1.11625724 90 1.11625724 90 0 90 C0 60.3 0 30.6 0 0 Z " fill="#FEFEFE" transform="translate(136,349)"/>
</svg>
