<?xml version="1.0" encoding="UTF-8"?>
<svg version="1.1" xmlns="http://www.w3.org/2000/svg" width="512" height="512">
<path d="M0 0 C2.21781251 -0.00571446 4.43562209 -0.01268284 6.65342712 -0.02079773 C12.63294652 -0.03862636 18.61231833 -0.0375801 24.59185624 -0.03185534 C29.60378581 -0.0287482 34.61568765 -0.03487289 39.62761325 -0.04089409 C52.13662785 -0.05570283 64.64557182 -0.05215459 77.15458133 -0.04003078 C87.97222608 -0.03010544 98.78969961 -0.04303553 109.60731796 -0.06696498 C120.76453907 -0.09145617 131.9216984 -0.10054132 143.07895011 -0.09431225 C149.32299475 -0.09095885 155.56689805 -0.09324934 161.81092262 -0.11056328 C167.68724021 -0.12614884 173.56323363 -0.12194922 179.43953896 -0.10325813 C181.58111005 -0.09960404 183.72270581 -0.10258637 185.864254 -0.11314392 C220.4995609 -0.27069563 251.63151568 10.85091732 276.55541992 35.40405273 C284.18383239 43.02063821 290.19238263 51.11072051 295.55541992 60.40405273 C295.90878418 61.01345703 296.26214844 61.62286133 296.6262207 62.25073242 C301.10976876 70.15021857 304.37691891 78.18747704 306.93041992 86.90405273 C307.16913818 87.70915283 307.40785645 88.51425293 307.65380859 89.34375 C311.71684655 104.18963516 311.84813218 119.25364252 311.81420898 134.51928711 C311.81692542 136.59418357 311.82048998 138.66907907 311.8248291 140.74397278 C311.83387781 146.33278878 311.83044013 151.92153021 311.82407093 157.51034737 C311.81897172 163.38714916 311.8237132 169.263945 311.82684326 175.14074707 C311.83047155 185.00570815 311.82571375 194.87063919 311.81616211 204.7355957 C311.80527978 216.10546893 311.80880616 227.4752704 311.81981492 238.84514189 C311.8289203 248.64521504 311.83015723 258.44526671 311.82493758 268.24534273 C311.82183571 274.08180192 311.82135914 279.91822749 311.82801056 285.75468445 C311.83383088 291.24432892 311.82970223 296.73388178 311.81822205 302.22351646 C311.81560034 304.22605424 311.81629736 306.22859987 311.82074738 308.23113441 C311.84979416 322.64215975 311.53921978 337.12286198 307.55541992 351.09155273 C307.34957275 351.81866455 307.14372559 352.54577637 306.93164062 353.29492188 C302.67935921 367.33234162 295.95938245 381.1262379 286.55541992 392.40405273 C285.70280421 393.47873883 284.85130736 394.55431322 284.00073242 395.63061523 C278.18884559 402.86394973 271.99763708 408.80630438 264.55541992 414.40405273 C263.76393555 415.05631836 262.97245117 415.70858398 262.15698242 416.38061523 C237.77715765 435.68451434 207.66316686 439.72092886 177.63305664 439.67871094 C175.56641965 439.68306762 173.49978428 439.68825393 171.43315125 439.69419861 C165.86047471 439.70749957 160.28786636 439.70817708 154.71517706 439.70563531 C150.04149596 439.70455914 145.36782829 439.70946557 140.69415009 439.71424073 C129.6540812 439.72530598 118.61404635 439.7257907 107.57397461 439.71972656 C96.23657585 439.71369418 84.89930142 439.72598604 73.56192386 439.74729663 C63.78302219 439.76499267 54.0041598 439.77090129 44.22524273 439.76765889 C38.4047953 439.765858 32.58443649 439.76836125 26.76400375 439.78237343 C21.28253379 439.79507753 15.80125547 439.79289051 10.31978798 439.77996254 C8.32579924 439.77762401 6.33179648 439.78023156 4.33782387 439.78858566 C-12.64385497 439.85451581 -30.19936431 439.05797154 -46.31958008 433.21655273 C-47.1805127 432.91612061 -48.04144531 432.61568848 -48.9284668 432.30615234 C-65.68915416 426.2480538 -79.50428915 416.58442725 -92.44458008 404.40405273 C-93.10973633 403.81495117 -93.77489258 403.22584961 -94.46020508 402.61889648 C-114.03610998 384.51516329 -126.6132751 354.75226301 -127.72418022 328.36922264 C-127.87604868 322.56624414 -127.86225663 316.7639776 -127.84863281 310.95947266 C-127.85434727 308.74166014 -127.86131565 306.52385056 -127.86943054 304.30604553 C-127.88725917 298.32652614 -127.88621292 292.34715432 -127.88048816 286.36761642 C-127.87738102 281.35568685 -127.88350571 276.34378501 -127.8895269 271.33185941 C-127.90433564 258.82284481 -127.9007874 246.31390083 -127.8886636 233.80489133 C-127.87873825 222.98724658 -127.89166834 212.16977305 -127.91559779 201.35215469 C-127.94008898 190.19493359 -127.94917413 179.03777425 -127.94294506 167.88052255 C-127.93959167 161.63647791 -127.94188215 155.39257461 -127.95919609 149.14855003 C-127.97478165 143.27223244 -127.97058203 137.39623903 -127.95189095 131.5199337 C-127.94823685 129.3783626 -127.95121918 127.23676685 -127.96177673 125.09521866 C-128.03778107 108.38684107 -126.31787161 92.36135894 -120.25708008 76.65405273 C-119.96446289 75.8794873 -119.6718457 75.10492188 -119.37036133 74.30688477 C-114.90418815 62.9716442 -108.35636971 52.65449658 -100.44458008 43.40405273 C-99.75750977 42.59581055 -99.07043945 41.78756836 -98.36254883 40.95483398 C-72.47545041 11.35014876 -38.42641964 -0.09019107 0 0 Z M-56.44458008 65.40405273 C-57.22446289 66.10143555 -58.0043457 66.79881836 -58.80786133 67.51733398 C-76.24182352 83.98776113 -87.4689255 108.44825216 -88.63740158 132.34797668 C-88.74223405 136.95035617 -88.73825779 141.5526731 -88.73510742 146.15600586 C-88.74110374 147.91840903 -88.74791179 149.68080959 -88.75546265 151.44320679 C-88.77302202 156.19989996 -88.77781388 160.95652103 -88.77909422 165.71324348 C-88.78052261 168.69581461 -88.78480525 171.6783678 -88.79008865 174.66093445 C-88.80855882 185.09712879 -88.81676344 195.53327228 -88.81518555 205.96948242 C-88.81398642 215.64651061 -88.83505166 225.32331495 -88.86667287 235.00028658 C-88.89296633 243.34897789 -88.90354733 251.69759671 -88.90227473 260.04632902 C-88.90176873 265.01449188 -88.90724842 269.98245574 -88.92863083 274.95057678 C-88.94823389 279.63262663 -88.94798976 284.31429222 -88.93359756 288.99635696 C-88.93153507 290.6972829 -88.93605369 292.39823432 -88.94831848 294.09911728 C-89.07346395 312.68519877 -85.95345631 329.79653321 -77.44458008 346.40405273 C-76.9212207 347.45979492 -76.39786133 348.51553711 -75.85864258 349.60327148 C-71.62534349 357.50198808 -66.0068636 363.69075682 -59.77514648 370.03393555 C-58.70283878 371.13811735 -57.66706006 372.27770863 -56.64379883 373.42749023 C-49.00237643 381.83897846 -38.45600025 387.90172744 -28.06958008 392.27905273 C-27.46001465 392.54073242 -26.85044922 392.80241211 -26.22241211 393.07202148 C-12.25071109 398.59695268 1.61218477 399.99713989 16.47338867 399.92163086 C18.30051222 399.92706758 20.12763138 399.93419883 21.95474243 399.94287109 C26.86392337 399.96092332 31.77276362 399.95411269 36.68194962 399.94135475 C41.85226519 399.93113223 47.0225542 399.94064584 52.19287109 399.94689941 C60.87073938 399.95414914 69.5484709 399.94465872 78.22631836 399.92553711 C88.21765322 399.9037736 98.20866141 399.91082687 108.19998837 399.93284273 C116.82305895 399.95107336 125.44603198 399.9535178 134.06911564 399.94308805 C139.19972641 399.93689503 144.33018434 399.93590066 149.46078491 399.94923401 C154.28737838 399.96090421 159.11355623 399.95256588 163.94010544 399.92965698 C165.69710988 399.9244289 167.45415014 399.92578047 169.21113968 399.93470764 C183.85859132 400.00219179 197.80569608 398.03752233 211.36791992 392.15405273 C212.06602783 391.85740723 212.76413574 391.56076172 213.48339844 391.25512695 C224.29098304 386.49338781 233.07921021 379.53605089 241.55541992 371.40405273 C242.26569336 370.7453418 242.9759668 370.08663086 243.70776367 369.40795898 C264.38323478 349.68490881 272.0131764 321.90187243 272.78789628 294.14232433 C273.00233005 284.08592754 272.98005078 274.02661283 272.95839643 263.96848726 C272.95069073 259.25684911 272.95787449 254.54522667 272.96255493 249.83358765 C272.96797803 241.93468015 272.96090894 234.03585745 272.9465332 226.13696289 C272.93017932 217.04702159 272.93552903 207.95728196 272.95201242 198.86734545 C272.96568567 191.00767611 272.96751958 183.14806697 272.95969641 175.28838956 C272.95505617 170.61789166 272.95429379 165.94748818 272.96430588 161.27699661 C272.97306032 156.88869278 272.96680141 152.500646 272.94962311 148.11236954 C272.94570449 146.51619389 272.94671131 144.91999605 272.9534111 143.32382965 C273.0570117 116.10414012 264.91035158 91.78087016 246.55541992 71.40405273 C245.5093457 70.23422852 245.5093457 70.23422852 244.44213867 69.04077148 C227.97141147 51.60649168 203.48888307 40.35756019 179.58409882 39.21408653 C174.93902809 39.11321849 170.29411306 39.12182223 165.64819336 39.12939453 C163.86944873 39.12503887 162.09070597 39.1198529 160.31196594 39.11390686 C155.51214714 39.10059588 150.71240746 39.09992945 145.91257381 39.10247016 C141.88972705 39.10354549 137.86689594 39.09864208 133.84405255 39.09386474 C124.34369549 39.08279636 114.84337796 39.08231676 105.34301758 39.08837891 C95.57960531 39.09441367 85.81633733 39.08211413 76.05294967 39.06080884 C67.63723139 39.04312739 59.22155876 39.03720185 50.80582261 39.04044658 C45.79423229 39.04224954 40.78274487 39.03972292 35.77117157 39.02573204 C31.05306788 39.01305167 26.33518713 39.01519312 21.61708641 39.02814293 C19.89835976 39.03048641 18.17961692 39.0278554 16.46090889 39.01951981 C-11.18027734 38.89526562 -35.70144523 46.71915142 -56.44458008 65.40405273 Z " fill="#D6546F" transform="translate(164.444580078125,36.595947265625)"/>
<path d="M0 0 C28.3301962 -1.11186013 55.55742329 10.23499211 76.48828125 28.77734375 C78.07678535 30.25095604 79.66060139 31.72964857 81.23828125 33.21484375 C81.8415625 33.75367188 82.44484375 34.2925 83.06640625 34.84765625 C103.89087543 54.21246638 112.30971477 82.94457639 114.4921875 110.41015625 C115.22958055 142.56049302 101.69103889 172.246681 80.0234375 195.48828125 C57.57847426 217.46105031 29.15891008 227.7779503 -1.97021484 227.63696289 C-29.64164298 227.02405181 -54.56062984 215.87706855 -74.76171875 197.21484375 C-75.84839844 196.24998047 -75.84839844 196.24998047 -76.95703125 195.265625 C-95.60992804 177.85877192 -108.40091337 150.77230452 -109.9387207 125.28076172 C-110.64807127 89.7001894 -102.78946259 60.27810073 -77.82836914 33.828125 C-70.56070629 26.36726471 -62.74988206 20.4497081 -53.76171875 15.21484375 C-52.65441406 14.56902344 -51.54710937 13.92320312 -50.40625 13.2578125 C-34.55666821 4.72913953 -17.75675323 1.38135987 0 0 Z M-54.4765625 65.58203125 C-67.22936314 80.27500156 -73.36688173 98.90426102 -72.76171875 118.21484375 C-71.09715085 138.89076731 -61.70335326 158.0157014 -45.9765625 171.625 C-29.98134061 184.24837011 -11.02246087 189.81214515 9.23828125 188.21484375 C24.45928433 186.22548292 37.55244355 180.17215129 49.23828125 170.21484375 C50.22828125 169.49296875 51.21828125 168.77109375 52.23828125 168.02734375 C66.4939628 155.86460159 73.96794935 136.57825557 75.58203125 118.328125 C76.06335597 99.13530195 70.29527566 82.08513685 58.23828125 67.21484375 C57.40683594 66.13783203 57.40683594 66.13783203 56.55859375 65.0390625 C45.37157374 51.25601153 27.57309166 42.84177372 10.16796875 40.64453125 C-14.95762293 38.14129728 -37.05907643 47.52967643 -54.4765625 65.58203125 Z " fill="#D6566E" transform="translate(253.76171875,141.78515625)"/>
<path d="M0 0 C6.22965938 5.54026045 9.42634384 11.41695199 10.27734375 19.69921875 C10.58222948 28.44334139 8.95816639 34.99480878 3.375 41.8125 C-2.6050368 48.02045109 -7.96597933 50.17940585 -16.5625 50.4375 C-24.56249172 50.1487925 -30.45942641 48.34629114 -36.39453125 42.859375 C-41.49895767 36.9476792 -44.21318599 29.79461271 -44 22 C-43.43778402 14.49207415 -41.10908311 9.48665969 -36 4 C-35.47277344 3.43152344 -34.94554687 2.86304687 -34.40234375 2.27734375 C-25.16984333 -6.6059368 -10.39104903 -7.60106335 0 0 Z " fill="#FC1F73" transform="translate(391,115)"/>
<path d="M0 0 C4.63532559 5.97578227 4.52427709 11.58954498 4 19 C2.76302752 26.60738077 -1.27975291 31.97342083 -7 37 C-13.6772648 41.69554349 -21.07836433 41.86580691 -29 41 C-31.89778152 40.24085065 -34.27639953 39.28169434 -37 38 C-32.75789864 32.93288701 -28.32282911 28.18776629 -23.6328125 23.53515625 C-22.95322479 22.85698349 -22.27363708 22.17881073 -21.57345581 21.48008728 C-19.42632998 19.33850859 -17.27573373 17.20045471 -15.125 15.0625 C-13.65862227 13.60114411 -12.1924742 12.13955774 -10.7265625 10.67773438 C-7.15369 7.11582065 -3.57770316 3.55706135 0 0 Z " fill="#9B1CB2" transform="translate(397,124)"/>
<path d="M0 0 C-1.32634942 2.93745916 -2.7693366 5.02143479 -5.04101562 7.29980469 C-5.65505249 7.92014587 -6.26908936 8.54048706 -6.9017334 9.17962646 C-7.56322388 9.83706848 -8.22471436 10.4945105 -8.90625 11.171875 C-9.58675415 11.8542926 -10.2672583 12.53671021 -10.96838379 13.23980713 C-12.40501197 14.67779427 -13.84416085 16.11326692 -15.28564453 17.54638672 C-17.49876429 19.74877028 -19.70098472 21.96164933 -21.90234375 24.17578125 C-23.29883803 25.57095454 -24.69595227 26.96550762 -26.09375 28.359375 C-26.75524048 29.02491394 -27.41673096 29.69045288 -28.0982666 30.37615967 C-28.71230347 30.98389221 -29.32634033 31.59162476 -29.95898438 32.21777344 C-30.49922241 32.75642029 -31.03946045 33.29506714 -31.59606934 33.85003662 C-33 35 -33 35 -35 35 C-36.36129262 26.55998579 -36.45008824 18.96185515 -31.3125 11.75 C-30.24097126 10.47191151 -29.13659277 9.22059039 -28 8 C-27.47277344 7.43152344 -26.94554687 6.86304687 -26.40234375 6.27734375 C-18.76061843 -1.07533286 -10.06465462 -1.58814892 0 0 Z " fill="#FE8E3F" transform="translate(383,111)"/>
<path d="M0 0 C2.50298434 2.93828597 3.46930939 5.17902761 4 9 C3.56026855 9.36826904 3.12053711 9.73653809 2.66748047 10.1159668 C-3.84534903 15.68317243 -9.84710657 21.73443723 -15.875 27.8125 C-16.92945115 28.87198007 -17.98413713 29.93122648 -19.0390625 30.99023438 C-21.69524506 33.65764083 -24.34773282 36.32870021 -27 39 C-27.66 39.66 -28.32 40.32 -29 41 C-31.64 40.01 -34.28 39.02 -37 38 C-32.75789864 32.93288701 -28.32282911 28.18776629 -23.6328125 23.53515625 C-22.95322479 22.85698349 -22.27363708 22.17881073 -21.57345581 21.48008728 C-19.42632998 19.33850859 -17.27573373 17.20045471 -15.125 15.0625 C-13.65862227 13.60114411 -12.1924742 12.13955774 -10.7265625 10.67773438 C-7.15369 7.11582065 -3.57770316 3.55706135 0 0 Z " fill="#D31C8F" transform="translate(397,124)"/>
<path d="M0 0 C2.57656942 0.90543771 3.74383585 1.78384689 5.46368408 3.86576843 C4.97056732 4.28701492 4.47745056 4.70826141 3.96939087 5.14227295 C-0.82824987 9.28380807 -5.37136483 13.59008444 -9.80975342 18.11186218 C-11.14165778 19.45638893 -12.47369264 20.80078642 -13.80584717 22.14506531 C-15.87495523 24.23916499 -17.94240659 26.3348552 -20.00750732 28.4329071 C-22.0206191 30.47603358 -24.03975364 32.51304891 -26.05975342 34.54936218 C-26.68054779 35.18361618 -27.30134216 35.81787018 -27.94094849 36.47134399 C-29.43522202 37.97440337 -30.98121301 39.42573516 -32.53631592 40.86576843 C-33.19631592 40.86576843 -33.85631592 40.86576843 -34.53631592 40.86576843 C-36.61191955 37.44712715 -36.61191955 37.44712715 -36.28637695 34.94384766 C-35.39881631 32.48481932 -34.2998498 31.23023326 -32.47283936 29.36650085 C-31.82836853 28.70289047 -31.18389771 28.03928009 -30.51989746 27.3555603 C-29.46841522 26.29907036 -29.46841522 26.29907036 -28.39569092 25.22123718 C-27.67649475 24.49205582 -26.95729858 23.76287445 -26.21630859 23.01159668 C-24.69365848 21.47376459 -23.16691448 19.9399768 -21.63641357 18.40995789 C-19.29329918 16.06027129 -16.97521065 13.68766077 -14.65740967 11.31303406 C-13.17581056 9.82263521 -11.69278443 8.33365331 -10.20819092 6.84623718 C-9.51529968 6.1317894 -8.82240845 5.41734161 -8.10852051 4.6812439 C-7.45144104 4.03339432 -6.79436157 3.38554474 -6.11737061 2.71806335 C-5.54524841 2.14166611 -4.97312622 1.56526886 -4.38366699 0.97140503 C-2.53631592 -0.13423157 -2.53631592 -0.13423157 0 0 Z " fill="#FF525E" transform="translate(385.53631591796875,112.13423156738281)"/>
<path d="M0 0 C0.99 0.33 1.98 0.66 3 1 C3.495 2.485 3.495 2.485 4 4 C-1.17860463 9.30507014 -6.37647092 14.59068299 -11.58837891 19.86303711 C-13.3601635 21.66001218 -15.12744081 23.46144274 -16.89013672 25.26733398 C-19.42032221 27.85796517 -21.96612885 30.43229491 -24.515625 33.00390625 C-25.30430969 33.81839737 -26.09299438 34.63288849 -26.90557861 35.47206116 C-27.64604431 36.21290451 -28.38651001 36.95374786 -29.14941406 37.71704102 C-29.79783264 38.37656265 -30.44625122 39.03608429 -31.11431885 39.71559143 C-33 41 -33 41 -35.24066162 40.70518494 C-35.82124329 40.47247391 -36.40182495 40.23976288 -37 40 C-36.41968125 36.42303238 -35.1345593 34.7672991 -32.58178711 32.24121094 C-31.86111557 31.52076599 -31.14044403 30.80032104 -30.39793396 30.05804443 C-29.61563919 29.29123352 -28.83334442 28.52442261 -28.02734375 27.734375 C-27.22970108 26.94097717 -26.43205841 26.14757935 -25.61024475 25.33013916 C-23.05961153 22.79630602 -20.49874774 20.27309895 -17.9375 17.75 C-16.20699858 16.0345436 -14.4771722 14.31840595 -12.74804688 12.6015625 C-8.50650094 8.39310357 -4.25650702 4.19332349 0 0 Z " fill="#ED1B80" transform="translate(394,120)"/>
<path d="M0 0 C-8.91 8.91 -17.82 17.82 -27 27 C-27.66 26.67 -28.32 26.34 -29 26 C-28.10697564 18.48627782 -26.16866565 13.55064556 -21 8 C-20.47277344 7.43152344 -19.94554687 6.86304687 -19.40234375 6.27734375 C-14.04353784 1.12123499 -7.34544727 -1.83636182 0 0 Z " fill="#FBBC1C" transform="translate(376,111)"/>
<path d="M0 0 C0.74859283 0.22539459 1.49718567 0.45078918 2.26846313 0.68301392 C-10.39820353 13.34968058 -23.0648702 26.01634725 -35.73153687 38.68301392 C-36.41455078 36.41455078 -36.41455078 36.41455078 -36.73153687 33.68301392 C-35.59466553 31.78424072 -35.59466553 31.78424072 -33.80331421 29.97842407 C-32.80635025 28.95309067 -32.80635025 28.95309067 -31.78924561 27.90704346 C-31.0560611 27.18600433 -30.32287659 26.46496521 -29.56747437 25.72207642 C-28.82325226 24.97211395 -28.07903015 24.22215149 -27.31225586 23.44946289 C-25.73396835 21.86709046 -24.14807055 20.29227797 -22.55526733 18.72451782 C-20.11579012 16.31714539 -17.70992651 13.87949478 -15.30575562 11.43692017 C-13.76991535 9.90504471 -12.23221492 8.3750315 -10.69247437 6.84707642 C-9.61091568 5.74729965 -9.61091568 5.74729965 -8.50750732 4.62530518 C-7.82395172 3.96066254 -7.14039612 3.2960199 -6.43612671 2.61123657 C-5.84020721 2.02009064 -5.24428772 1.4289447 -4.63031006 0.81988525 C-2.73153687 -0.31698608 -2.73153687 -0.31698608 0 0 Z " fill="#FF7151" transform="translate(385.7315368652344,112.31698608398438)"/>
<path d="M0 0 C0.495 1.98 0.495 1.98 1 4 C0.56026855 4.36826904 0.12053711 4.73653809 -0.33251953 5.1159668 C-6.84534903 10.68317243 -12.84710657 16.73443723 -18.875 22.8125 C-19.92945115 23.87198007 -20.98413713 24.93122648 -22.0390625 25.99023438 C-24.69524506 28.65764083 -27.34773282 31.32870021 -30 34 C-30.66 34.66 -31.32 35.32 -32 36 C-32.99 35.67 -33.98 35.34 -35 35 C-33.67365058 32.06254084 -32.2306634 29.97856521 -29.95898438 27.70019531 C-29.34494751 27.07985413 -28.73091064 26.45951294 -28.0982666 25.82037354 C-27.43677612 25.16293152 -26.77528564 24.5054895 -26.09375 23.828125 C-25.41324585 23.1457074 -24.7327417 22.46328979 -24.03161621 21.76019287 C-22.59498803 20.32220573 -21.15583915 18.88673308 -19.71435547 17.45361328 C-17.50123571 15.25122972 -15.29901528 13.03835067 -13.09765625 10.82421875 C-11.70116197 9.42904546 -10.30404773 8.03449238 -8.90625 6.640625 C-8.24475952 5.97508606 -7.58326904 5.30954712 -6.9017334 4.62384033 C-6.28769653 4.01610779 -5.67365967 3.40837524 -5.04101562 2.78222656 C-4.23065857 1.97425629 -4.23065857 1.97425629 -3.40393066 1.14996338 C-2 0 -2 0 0 0 Z " fill="#B81BA0" transform="translate(400,129)"/>
<path d="M0 0 C-1.39080525 3.13738154 -3.01022204 5.25475281 -5.43994141 7.66699219 C-6.14051666 8.36741638 -6.84109192 9.06784058 -7.56289673 9.78948975 C-8.69578629 10.90689545 -8.69578629 10.90689545 -9.8515625 12.046875 C-10.62559418 12.81807678 -11.39962585 13.58927856 -12.19711304 14.3838501 C-14.66841923 16.84396856 -17.14659183 19.29703848 -19.625 21.75 C-21.30254052 23.41750894 -22.97962945 25.08547232 -24.65625 26.75390625 C-28.76560919 30.8412237 -32.88062647 34.92277696 -37 39 C-37.99 38.67 -38.98 38.34 -40 38 C-35.77231747 32.96318387 -31.3716476 28.19940073 -26.73828125 23.53515625 C-26.06580856 22.85698349 -25.39333588 22.17881073 -24.70048523 21.48008728 C-23.29088676 20.0611108 -21.8798825 18.64352955 -20.4675293 17.22729492 C-18.30120167 15.05115047 -16.1457592 12.86457314 -13.99023438 10.67773438 C-12.6152409 9.29622022 -11.23961248 7.91533767 -9.86328125 6.53515625 C-9.21950027 5.87902847 -8.5757193 5.2229007 -7.91242981 4.54689026 C-7.31137924 3.94884079 -6.71032867 3.35079132 -6.09106445 2.73461914 C-5.30213554 1.94022179 -5.30213554 1.94022179 -4.49726868 1.129776 C-3 0 -3 0 0 0 Z " fill="#FF3769" transform="translate(392,116)"/>
<path d="M0 0 C0.99 0.33 1.98 0.66 3 1 C-2.66574049 7.92810724 -9.03033639 14.14204142 -15.375 20.4375 C-16.50413955 21.56161467 -17.63304778 22.68596174 -18.76171875 23.81054688 C-21.50515188 26.54305235 -24.25169985 29.27239009 -27 32 C-27.66 30.68 -28.32 29.36 -29 28 C-28.55011719 27.62157959 -28.10023438 27.24315918 -27.63671875 26.85327148 C-21.45361804 21.55690052 -15.72764562 15.84217942 -10 10.0625 C-9.02497614 9.0824469 -8.0497172 8.1026276 -7.07421875 7.12304688 C-4.71383382 4.75097687 -2.35583095 2.3765914 0 0 Z " fill="#FCA62C" transform="translate(376,110)"/>
<path d="M0 0 C-6.93 6.93 -13.86 13.86 -21 21 C-22 18 -22 18 -20.5625 14.3125 C-17.31422426 8.24158464 -12.49365616 2.87681008 -6.1875 -0.0625 C-3 -1 -3 -1 0 0 Z " fill="#FACB0F" transform="translate(370,112)"/>
<path d="M0 0 C0.66 0.99 1.32 1.98 2 3 C-3.22577097 8.27632409 -8.45924379 13.54491517 -13.69824219 18.80810547 C-15.48096803 20.60091239 -17.2618979 22.39550699 -19.04101562 24.19189453 C-21.59299438 26.76802899 -24.15128303 29.33774492 -26.7109375 31.90625 C-27.50994476 32.71557983 -28.30895203 33.52490967 -29.13217163 34.35876465 C-30.24309677 35.46991638 -30.24309677 35.46991638 -31.37646484 36.60351562 C-32.35575455 37.58946716 -32.35575455 37.58946716 -33.35482788 38.59533691 C-35 40 -35 40 -37 40 C-35.62737236 36.91655459 -34.06394769 34.82281099 -31.66772461 32.45654297 C-30.9903978 31.78259491 -30.31307098 31.10864685 -29.61521912 30.41427612 C-28.88497025 29.69748688 -28.15472137 28.98069763 -27.40234375 28.2421875 C-26.65287979 27.49792511 -25.90341583 26.75366272 -25.13124084 25.98684692 C-22.73802366 23.61143574 -20.33822632 21.24281991 -17.9375 18.875 C-15.53408548 16.49917784 -13.13213131 14.12192511 -10.73304749 11.74172974 C-9.2400398 10.26100567 -7.74436764 8.78296256 -6.24583435 7.30783081 C-5.5716597 6.64018707 -4.89748505 5.97254333 -4.20288086 5.28466797 C-3.30925087 4.40341751 -3.30925087 4.40341751 -2.39756775 3.50436401 C-0.89939547 2.03306111 -0.89939547 2.03306111 0 0 Z " fill="#DF1B87" transform="translate(396,121)"/>
<path d="M0 0 C0.66 0.99 1.32 1.98 2 3 C1.5776709 3.3508667 1.1553418 3.7017334 0.72021484 4.06323242 C-6.3585507 10.09183127 -12.82974829 16.71947931 -19.375 23.3125 C-20.57398351 24.51651035 -21.77320054 25.72028819 -22.97265625 26.92382812 C-25.1542736 29.11356204 -27.33462472 31.30453765 -29.51318359 33.49731445 C-31.0066635 35.00032471 -32.50174734 36.50174734 -34 38 C-34.66 37.34 -35.32 36.68 -36 36 C-24.12 24.12 -12.24 12.24 0 0 Z " fill="#C81B97" transform="translate(398,126)"/>
<path d="M0 0 C1.12018942 3.36056826 1.0193672 3.72745395 -0.4375 6.75 C-4.55983575 14.44219352 -10.82371806 18.51791441 -19 21 C-17.54254576 17.63664406 -15.68882146 15.45465995 -13.0859375 12.890625 C-12.32539063 12.13652344 -11.56484375 11.38242188 -10.78125 10.60546875 C-9.9871875 9.82816406 -9.193125 9.05085937 -8.375 8.25 C-7.57320313 7.45722656 -6.77140625 6.66445312 -5.9453125 5.84765625 C-3.96797154 3.89385507 -1.98611091 1.94487897 0 0 Z " fill="#7E1BC6" transform="translate(399,144)"/>
<path d="M0 0 C0.76513672 1.70654297 0.76513672 1.70654297 1 4 C-0.70654297 6.25830078 -0.70654297 6.25830078 -3.2421875 8.6953125 C-4.14324219 9.57574219 -5.04429687 10.45617187 -5.97265625 11.36328125 C-6.93960048 12.28438322 -7.90705456 13.20495022 -8.875 14.125 C-10.75157459 15.93584076 -12.6216888 17.75318038 -14.4921875 19.5703125 C-15.33120605 20.37227051 -16.17022461 21.17422852 -17.03466797 22.00048828 C-19.0522683 23.84783826 -19.0522683 23.84783826 -20 26 C-21.65 26 -23.3 26 -25 26 C-20.03805145 20.00499003 -14.6523376 14.53572963 -9.125 9.0625 C-8.24585938 8.18787109 -7.36671875 7.31324219 -6.4609375 6.41210938 C-4.3095654 4.27242952 -2.15588208 2.13513403 0 0 Z " fill="#8C1CBC" transform="translate(400,139)"/>
<path d="M0 0 C-1.2762525 2.79425088 -2.59970977 4.85142126 -4.765625 7.02441406 C-5.59658691 7.86483246 -5.59658691 7.86483246 -6.44433594 8.722229 C-7.04020508 9.31404968 -7.63607422 9.90587036 -8.25 10.515625 C-8.86391602 11.13145447 -9.47783203 11.74728394 -10.11035156 12.3817749 C-11.40574483 13.67852646 -12.70365644 14.97276657 -14.00390625 16.26464844 C-15.99975068 18.24975202 -17.98466726 20.24533591 -19.96875 22.2421875 C-21.22852555 23.50064211 -22.48892101 24.75847654 -23.75 26.015625 C-24.64380371 26.9155014 -24.64380371 26.9155014 -25.55566406 27.83355713 C-29.77006753 32 -29.77006753 32 -32 32 C-30.7237475 29.20574912 -29.40029023 27.14857874 -27.234375 24.97558594 C-26.68040039 24.41530701 -26.12642578 23.85502808 -25.55566406 23.277771 C-24.95979492 22.68595032 -24.36392578 22.09412964 -23.75 21.484375 C-23.13608398 20.86854553 -22.52216797 20.25271606 -21.88964844 19.6182251 C-20.59425517 18.32147354 -19.29634356 17.02723343 -17.99609375 15.73535156 C-16.00024932 13.75024798 -14.01533274 11.75466409 -12.03125 9.7578125 C-10.77147445 8.49935789 -9.51107899 7.24152346 -8.25 5.984375 C-7.65413086 5.3844574 -7.05826172 4.78453979 -6.44433594 4.16644287 C-2.22993247 0 -2.22993247 0 0 0 Z " fill="#A91CAA" transform="translate(401,133)"/>
<path d="M0 0 C0.66 0.33 1.32 0.66 2 1 C-3.28 6.28 -8.56 11.56 -14 17 C-14.33 16.34 -14.66 15.68 -15 15 C-10.93517488 9.1335491 -6.52490706 3.26245353 0 0 Z " fill="#FAD806" transform="translate(364,112)"/>
<path d="M0 0 C0.33 0.99 0.66 1.98 1 3 C-7.07744875 12.96355353 -7.07744875 12.96355353 -13 14 C-8.88380164 9.08064098 -4.59589638 4.47352044 0 0 Z " fill="#701BCC" transform="translate(397,149)"/>
</svg>
