<?xml version="1.0" encoding="UTF-8"?>
<svg version="1.1" xmlns="http://www.w3.org/2000/svg" width="512" height="512">
<path d="M0 0 C0.77279297 -0.02900391 1.54558594 -0.05800781 2.34179688 -0.08789062 C3.09138672 -0.09626953 3.84097656 -0.10464844 4.61328125 -0.11328125 C5.29817627 -0.12786377 5.98307129 -0.14244629 6.6887207 -0.1574707 C9.67652091 0.54504736 10.73632394 1.95717934 12.6875 4.3125 C13.58528861 6.79776882 14.278858 9.09823139 14.88574219 11.65136719 C15.07164413 12.38346909 15.25754608 13.11557098 15.44908142 13.86985779 C16.05755178 16.279899 16.64601134 18.69435391 17.234375 21.109375 C17.65341626 22.7854837 18.07370154 24.46128184 18.49517822 26.13677979 C19.5991759 30.53959949 20.68624867 34.94642854 21.76983643 39.35430908 C22.87932448 43.85463766 24.00478646 48.35096463 25.12890625 52.84765625 C27.33074632 61.66543018 29.51472488 70.48752281 31.6875 79.3125 C33.15333933 75.09960519 34.32353872 70.90368832 35.33569336 66.56030273 C35.48722366 65.91396881 35.63875397 65.26763489 35.7948761 64.60171509 C36.12119206 63.20901677 36.44633099 61.81604223 36.77039909 60.42281914 C37.284627 58.21482086 37.80332125 56.00791667 38.32337952 53.80128479 C39.80082903 47.5309897 41.27409085 41.25974202 42.73510742 34.9855957 C43.63130203 31.13845194 44.53587868 27.29336081 45.44583321 23.44944954 C45.78984663 21.98900912 46.13070958 20.52782275 46.46830559 19.06588554 C46.94094522 17.02040884 47.42422312 14.97771421 47.90991211 12.93530273 C48.18145615 11.77425522 48.45300018 10.6132077 48.73277283 9.41697693 C49.78645495 5.99072916 51.11665199 2.88334801 53.6875 0.3125 C56.47187239 0.15863458 59.21433231 0.0808117 62 0.0625 C63.15918945 0.0315625 63.15918945 0.0315625 64.34179688 0 C65.09138672 -0.00515625 65.84097656 -0.0103125 66.61328125 -0.015625 C67.29817627 -0.0249707 67.98307129 -0.03431641 68.6887207 -0.04394531 C71.48043081 0.45390454 72.63090611 1.33732625 74.6875 3.3125 C75.57497979 5.75641207 76.21863249 7.97207221 76.77807617 10.49023438 C76.95261826 11.21737137 77.12716034 11.94450836 77.30699158 12.69367981 C77.87951806 15.09465701 78.42995786 17.50013839 78.98046875 19.90625 C79.37452692 21.57662335 79.76999876 23.24666377 80.16682434 24.91638184 C81.20752494 29.31139921 82.22976186 33.71050759 83.24798584 38.11077881 C84.28706254 42.58802307 85.34205443 47.06150738 86.39648438 51.53515625 C87.580704 56.56036163 88.76345783 61.58584395 89.93241882 66.61462402 C90.11052094 67.37913376 90.28862305 68.14364349 90.47212219 68.93132019 C90.80432924 70.35826208 91.13543022 71.78546211 91.46520996 73.21296692 C92.10638686 75.9636626 92.79355022 78.63065066 93.6875 81.3125 C93.93139969 80.35672058 94.17529938 79.40094116 94.42658997 78.41619873 C96.72645116 69.40867393 99.03601284 60.40368544 101.35509205 51.40108871 C102.54703841 46.77269685 103.73555118 42.14347957 104.91625977 37.51220703 C106.0558582 33.04271297 107.2044193 28.57561077 108.35922813 24.1100235 C108.79820354 22.40601948 109.23394445 20.70117882 109.66639137 18.99550629 C110.2727111 16.60636144 110.89046948 14.22045163 111.51098633 11.83496094 C111.68721527 11.12933517 111.86344421 10.42370941 112.04501343 9.69670105 C113.02081403 5.99861086 114.02132457 3.1071612 116.6875 0.3125 C118.66455078 -0.1574707 118.66455078 -0.1574707 120.8828125 -0.11328125 C122.07970703 -0.10071289 122.07970703 -0.10071289 123.30078125 -0.08789062 C124.12964844 -0.05888672 124.95851563 -0.02988281 125.8125 0 C126.64910156 0.00966797 127.48570312 0.01933594 128.34765625 0.02929688 C134.51932803 0.14432803 134.51932803 0.14432803 135.6875 1.3125 C136.41691988 8.17298967 134.10223516 14.01833566 131.91796875 20.453125 C131.52564056 21.63729507 131.13331238 22.82146515 130.72909546 24.04151917 C129.67181706 27.22808828 128.60585326 30.41148504 127.53575516 33.59375381 C125.77167045 38.84991412 124.03009118 44.11361938 122.28458214 49.37597084 C121.63354756 51.33762893 120.98118749 53.29884317 120.32881165 55.26005554 C117.84643646 62.73448326 115.42902029 70.22491183 113.1171875 77.75390625 C112.86288467 78.58012482 112.60858185 79.40634338 112.34657288 80.25759888 C111.21117367 83.95729382 110.09040373 87.66074471 108.98706055 91.37011719 C108.59716151 92.64918584 108.20696481 93.92816382 107.81640625 95.20703125 C107.49744385 96.27800049 107.17848145 97.34896973 106.84985352 98.45239258 C105.53853487 101.67904622 104.14204024 103.84035547 101.6875 106.3125 C99.53686523 106.95947266 99.53686523 106.95947266 97.24609375 106.9765625 C95.99989258 106.98623047 95.99989258 106.98623047 94.72851562 106.99609375 C93.86935547 106.97675781 93.01019531 106.95742188 92.125 106.9375 C91.26197266 106.95683594 90.39894531 106.97617187 89.50976562 106.99609375 C88.68025391 106.98964844 87.85074219 106.98320312 86.99609375 106.9765625 C86.24126709 106.97092285 85.48644043 106.9652832 84.70874023 106.95947266 C81.640246 105.97728764 81.14061019 104.13169463 79.6875 101.3125 C78.98007595 99.02013849 78.35979178 96.70004722 77.80224609 94.36669922 C77.55528236 93.34870743 77.55528236 93.34870743 77.30332947 92.31015015 C76.76457627 90.08099166 76.23775987 87.8491928 75.7109375 85.6171875 C75.3372525 84.06191665 74.96277974 82.50683489 74.58755493 80.95193481 C73.60406129 76.8679328 72.63049749 72.78162919 71.65924072 68.69470215 C70.47632312 63.72468175 69.28245653 58.75728281 68.08945656 53.78967476 C67.16170597 49.92611637 66.23584546 46.06213984 65.31576538 42.19674683 C65.14630905 41.4868158 64.97685272 40.77688477 64.80226135 40.04544067 C64.34499394 38.12952153 63.88892958 36.21331536 63.43295288 34.29708862 C62.7219184 31.28756385 62.7219184 31.28756385 61.6875 28.3125 C61.37469589 29.64887764 61.37469589 29.64887764 61.05557251 31.01225281 C59.08813037 39.41453418 57.11693974 47.81592537 55.14155006 56.21634197 C54.12615426 60.53494131 53.11220313 64.85386915 52.1015625 69.17358398 C51.12590482 73.34353301 50.14644075 77.51257119 49.1643486 81.68100929 C48.79062007 83.27026435 48.41825638 84.85984101 48.0472908 86.44974327 C47.52685309 88.67919898 47.00154277 90.9074544 46.47509766 93.13549805 C46.02875473 95.03745186 46.02875473 95.03745186 45.57339478 96.97782898 C44.79682215 99.9009913 43.99419745 102.58641263 42.6875 105.3125 C39.15784724 107.07732638 35.13850224 106.58208055 31.25 106.625 C29.94192383 106.66850586 29.94192383 106.66850586 28.60742188 106.71289062 C27.76888672 106.72126953 26.93035156 106.72964844 26.06640625 106.73828125 C25.2988501 106.75286377 24.53129395 106.76744629 23.74047852 106.7824707 C20.82592671 106.11526744 20.28139097 104.80673274 18.6875 102.3125 C17.66598511 99.60366821 17.66598511 99.60366821 16.74560547 96.45947266 C16.394487 95.2752774 16.04336853 94.09108215 15.68161011 92.8710022 C15.3058332 91.57289501 14.93019647 90.27474723 14.5546875 88.9765625 C14.15530263 87.61903122 13.75515069 86.26172541 13.35427856 84.90463257 C12.29498941 81.31138605 11.24559923 77.71532337 10.19842529 74.11853027 C8.96196609 69.87785141 7.71424209 65.64047853 6.46802139 61.40266037 C5.43888372 57.90198855 4.41204253 54.40068124 3.39056396 50.89776611 C1.32943563 43.83806303 -0.76780826 36.79210689 -2.93652344 29.76464844 C-3.35974759 28.38540833 -3.78283549 27.00612641 -4.20578003 25.62680054 C-4.99838728 23.04237058 -5.80296969 20.46276455 -6.61477661 17.88418579 C-9.94996941 7.01300648 -9.94996941 7.01300648 -9.3125 1.3125 C-7.20985027 -0.79014973 -2.88804314 0.03559626 0 0 Z " fill="#000000" transform="translate(198.3125,159.6875)"/>
<path d="M0 0 C4.43387866 0.32179806 7.68145921 1.64570115 11.54296875 3.7734375 C13.13262451 4.63171143 13.13262451 4.63171143 14.75439453 5.50732422 C15.88731934 6.12365723 17.02024414 6.73999023 18.1875 7.375 C98.96240319 50.41794 195.68728874 58.58028146 283 32 C293.34229054 28.64670103 303.66320979 25.01444232 313.71850586 20.88305664 C317.30872371 19.493456 320.16942455 19.74881472 324 20 C326 22 326 22 326.375 24.875 C325.8962365 28.86469587 325.03964244 29.40805684 322 32 C302.33768951 45.64312704 279.83112248 55.99864759 257 63 C256.24702637 63.23267578 255.49405273 63.46535156 254.71826172 63.70507812 C195.54403948 81.70737672 132.24992133 77.93163477 75 55 C74.34338379 54.7431543 73.68676758 54.48630859 73.01025391 54.22167969 C48.4269876 44.52283722 26.43398166 29.5430551 6 13 C4.81664063 12.08541016 4.81664063 12.08541016 3.609375 11.15234375 C0.92696258 9.02058916 -0.81296441 7.48409212 -2.0625 4.25 C-2 2 -2 2 0 0 Z " fill="#000000" transform="translate(78,297)"/>
<path d="M0 0 C7.35714349 6.33056533 12.31691262 14.09637615 13.28396606 23.86990356 C13.40755123 27.1258216 13.44107276 30.37065839 13.44140625 33.62890625 C13.46121803 35.41251808 13.46121803 35.41251808 13.48143005 37.23216248 C13.52210683 41.00896586 13.54393461 44.78552803 13.5625 48.5625 C13.58635838 52.34296854 13.61457973 56.12321241 13.65428162 59.90354919 C13.67846203 62.24857253 13.69346374 64.59371421 13.69789124 66.93885803 C13.76985967 74.50892043 14.49709301 80.64736133 17.625 87.625 C19.0866165 91.21260414 19.47262721 93.17959669 19 97 C17.0234375 99.1171875 17.0234375 99.1171875 14.375 100.875 C13.08722656 101.76832031 13.08722656 101.76832031 11.7734375 102.6796875 C8.52953236 104.2239691 6.55094476 104.48377994 3 104 C1.171875 102.6796875 1.171875 102.6796875 -0.25 100.875 C-0.72953125 100.29492188 -1.2090625 99.71484375 -1.703125 99.1171875 C-3.29139016 96.52429679 -4.12818905 93.90329495 -5 91 C-5.66644531 91.59167969 -6.33289063 92.18335938 -7.01953125 92.79296875 C-19.93026401 103.86189069 -31.27737324 106.87432883 -47.87548828 106.17480469 C-55.97761958 105.50816185 -62.80669827 101.1050147 -68 95 C-74.04130599 85.2467473 -75.80580074 75.23445138 -73.31640625 63.8828125 C-70.18756827 54.50928128 -65.30138147 49.41376157 -56.953125 44.359375 C-49.1179814 40.7527216 -41.83640241 39.49723068 -33.25 39.625 C-32.29786621 39.63080078 -31.34573242 39.63660156 -30.36474609 39.64257812 C-22.61525184 39.78407354 -15.47000214 40.85842942 -8 43 C-7.73693635 29.21786599 -7.73693635 29.21786599 -13 17 C-20.75307665 11.45092296 -29.79865177 11.14282401 -39 12 C-45.0318098 13.05324028 -51.0228816 14.74095433 -56.66015625 17.125 C-59.07059091 18.02639794 -60.75917084 18.21155353 -63.3125 18.125 C-64.529375 18.08375 -65.74625 18.0425 -67 18 C-68.20398679 5.64241335 -68.20398679 5.64241335 -65.60546875 2.09765625 C-63.45602938 0.72744337 -61.40117084 -0.14379804 -59 -1 C-58.15566406 -1.36222656 -57.31132813 -1.72445312 -56.44140625 -2.09765625 C-39.05788684 -9.13684626 -16.32739074 -10.4241236 0 0 Z M-48.5 61.4375 C-51.44477383 66.46815529 -52.51858139 70.08817217 -52 76 C-50.02112081 81.20757681 -46.97701496 85.12873345 -42.22265625 88.1171875 C-35.91376895 90.62300214 -27.893786 89.67772567 -21.625 87.4375 C-15.84176586 84.72925377 -11.44232929 81.40492735 -8.90625 75.41796875 C-7.12631062 69.52603978 -6.69877437 64.12492112 -7 58 C-20.05969436 54.24310162 -37.70646674 50.91380508 -48.5 61.4375 Z " fill="#000000" transform="translate(165,163)"/>
<path d="M0 0 C0.95648438 0.00612305 1.91296875 0.01224609 2.8984375 0.01855469 C13.39034865 0.24833037 22.63757022 2.07832219 31.25 8.4375 C32.47691067 10.89132134 32.45175931 12.63734103 32.5 15.375 C32.52578125 16.25027344 32.5515625 17.12554687 32.578125 18.02734375 C32.19290357 20.8568869 31.44305243 21.68882925 29.25 23.4375 C28.17363281 23.08816406 27.09726562 22.73882812 25.98828125 22.37890625 C13.10350158 18.31174469 0.32715655 14.90716051 -12.75 20.4375 C-16.19897457 23.44869736 -17.65103685 25.12623827 -18 29.75 C-17.72771642 33.76618287 -17.08757374 35.23737175 -14.75 38.4375 C-8.06305876 43.20703874 0.14027901 45.46111273 7.875 47.9375 C19.98636399 51.84339627 29.09461884 55.71480398 35.27734375 67.375 C38.66083486 75.10869396 37.93308697 83.19710705 35.28515625 91.0546875 C31.33218207 100.15398655 24.0763358 106.01320923 15.0625 109.75 C-0.63529357 115.76030222 -20.15975968 113.45914535 -35.47265625 107.3515625 C-40.46370968 105.01008065 -40.46370968 105.01008065 -41.75 102.4375 C-41.87199138 100.4402458 -41.92547512 98.43844019 -41.9375 96.4375 C-41.95167969 95.365 -41.96585937 94.2925 -41.98046875 93.1875 C-41.75 90.4375 -41.75 90.4375 -39.75 88.4375 C-34.08008512 88.68401804 -29.028266 90.60085302 -23.71484375 92.5 C-13.03746581 95.87624599 -0.03496914 96.00071619 10.25 91.4375 C11.24 91.1075 12.23 90.7775 13.25 90.4375 C15.71050681 86.29348853 16.19725308 81.12560001 15.25 76.4375 C12.76309347 72.62801136 10.58165955 70.72269501 6.375 69.0625 C5.32699219 68.64871094 4.27898437 68.23492187 3.19921875 67.80859375 C0.14945113 66.70847879 -2.93443272 65.76762455 -6.04296875 64.84765625 C-20.06750994 60.68633103 -31.25679118 57.29222584 -38.7265625 43.734375 C-41.75295088 36.9423278 -41.97516123 28.33913545 -39.75 21.25 C-35.98465997 12.80437751 -29.04173886 7.07797603 -20.75 3.4375 C-13.79900869 0.82956491 -7.39967704 -0.08122875 0 0 Z " fill="#000000" transform="translate(382.75,156.5625)"/>
<path d="M0 0 C4.3345484 9.94264967 -1.38062633 25.4198537 -5 35 C-9.64364128 45.98027679 -16.70870613 53.70870613 -25 62 C-27.625 62.125 -27.625 62.125 -30 62 C-29.51215338 55.36133039 -28.12738722 50.07275861 -25.625 43.9375 C-19.99665944 29.91785817 -19.99665944 29.91785817 -19.56640625 15.1796875 C-20.87015097 12.81705098 -20.87015097 12.81705098 -23.453125 11.69921875 C-28.25613129 10.75237059 -32.86729882 10.74981667 -37.75 10.8125 C-38.6884375 10.81314453 -39.626875 10.81378906 -40.59375 10.81445312 C-46.05894404 10.84842187 -51.41268025 11.1798604 -56.84375 11.77954102 C-60.57584245 12.16111704 -64.25330268 12.0604306 -68 12 C-68.33 10.68 -68.66 9.36 -69 8 C-52.94332097 -5.45531763 -18.79484367 -12.33411616 0 0 Z " fill="#000000" transform="translate(435,295)"/>
</svg>
